<mxfile host="app.diagrams.net" agent="Mozilla/5.0 (Windows NT 10.0; Win64; x64) AppleWebKit/537.36 (KHTML, like Gecko) Chrome/136.0.0.0 Safari/537.36" version="27.0.4">
  <diagram id="R2lEEEUBdFMjLlhIrx00" name="Page-1">
    <mxGraphModel dx="2672" dy="1778" grid="1" gridSize="10" guides="1" tooltips="1" connect="1" arrows="1" fold="1" page="1" pageScale="1" pageWidth="1100" pageHeight="850" background="light-dark(#000000,#FFFFFF)" math="0" shadow="0" extFonts="Permanent Marker^https://fonts.googleapis.com/css?family=Permanent+Marker">
      <root>
        <mxCell id="0" />
        <mxCell id="1" parent="0" />
        <mxCell id="QeXP5KTg3SGVcVjhPOvT-15" value="STUDENT" style="whiteSpace=wrap;html=1;align=center;strokeColor=light-dark(#000000,#000000);verticalAlign=middle;fontFamily=Helvetica;fontSize=14;fontColor=#ffffff;labelBackgroundColor=light-dark(#FFFFFF,#FFFFFF);fillColor=light-dark(#000000,#FFFFFF);labelBorderColor=none;fontStyle=1;" parent="1" vertex="1">
          <mxGeometry x="60" y="340" width="100" height="40" as="geometry" />
        </mxCell>
        <mxCell id="QeXP5KTg3SGVcVjhPOvT-22" value="" style="edgeStyle=orthogonalEdgeStyle;rounded=0;orthogonalLoop=1;jettySize=auto;html=1;fontFamily=Helvetica;fontSize=14;fontColor=#ffffff;labelBackgroundColor=light-dark(#FFFFFF,#FFFFFF);" parent="1" source="QeXP5KTg3SGVcVjhPOvT-14" edge="1">
          <mxGeometry relative="1" as="geometry">
            <mxPoint x="544.6399999999999" y="321.8699999999999" as="targetPoint" />
          </mxGeometry>
        </mxCell>
        <mxCell id="QeXP5KTg3SGVcVjhPOvT-17" value="Assigned to" style="shape=rhombus;perimeter=rhombusPerimeter;whiteSpace=wrap;html=1;align=center;strokeColor=light-dark(#000000,#000000);verticalAlign=middle;fontFamily=Helvetica;fontSize=14;fontColor=#ffffff;labelBackgroundColor=light-dark(#FFFFFF,#FFFFFF);fillColor=light-dark(#000000,#FFFFFF);rotation=0;" parent="1" vertex="1">
          <mxGeometry x="260" y="330" width="130" height="60" as="geometry" />
        </mxCell>
        <mxCell id="QeXP5KTg3SGVcVjhPOvT-23" value="" style="endArrow=none;html=1;rounded=0;fontFamily=Helvetica;fontSize=14;fontColor=#ffffff;labelBackgroundColor=light-dark(#FFFFFF,#FFFFFF);exitX=1;exitY=0.5;exitDx=0;exitDy=0;entryX=0;entryY=0.5;entryDx=0;entryDy=0;strokeColor=light-dark(#000000,#000000);" parent="1" source="QeXP5KTg3SGVcVjhPOvT-17" target="QeXP5KTg3SGVcVjhPOvT-14" edge="1">
          <mxGeometry relative="1" as="geometry">
            <mxPoint x="360" y="440" as="sourcePoint" />
            <mxPoint x="520" y="440" as="targetPoint" />
          </mxGeometry>
        </mxCell>
        <mxCell id="QeXP5KTg3SGVcVjhPOvT-24" value="1" style="resizable=0;html=1;whiteSpace=wrap;align=right;verticalAlign=bottom;strokeColor=light-dark(#000000,#000000);fontFamily=Helvetica;fontSize=14;fontColor=#ffffff;labelBackgroundColor=light-dark(#FFFFFF,#FFFFFF);fillColor=light-dark(#000000,#FFFFFF);" parent="QeXP5KTg3SGVcVjhPOvT-23" connectable="0" vertex="1">
          <mxGeometry x="1" relative="1" as="geometry">
            <mxPoint x="-70" as="offset" />
          </mxGeometry>
        </mxCell>
        <mxCell id="QeXP5KTg3SGVcVjhPOvT-26" value="" style="endArrow=none;html=1;rounded=0;fontFamily=Helvetica;fontSize=14;fontColor=#ffffff;labelBackgroundColor=light-dark(#FFFFFF,#FFFFFF);entryX=1;entryY=0.5;entryDx=0;entryDy=0;exitX=0;exitY=0.5;exitDx=0;exitDy=0;strokeColor=light-dark(#000000,#000000);" parent="1" source="QeXP5KTg3SGVcVjhPOvT-17" target="QeXP5KTg3SGVcVjhPOvT-15" edge="1">
          <mxGeometry relative="1" as="geometry">
            <mxPoint x="360" y="440" as="sourcePoint" />
            <mxPoint x="520" y="440" as="targetPoint" />
          </mxGeometry>
        </mxCell>
        <mxCell id="QeXP5KTg3SGVcVjhPOvT-27" value="N" style="resizable=0;html=1;whiteSpace=wrap;align=right;verticalAlign=bottom;strokeColor=light-dark(#000000,#000000);fontFamily=Helvetica;fontSize=14;fontColor=#ffffff;labelBackgroundColor=light-dark(#FFFFFF,#FFFFFF);fillColor=light-dark(#000000,#FFFFFF);" parent="QeXP5KTg3SGVcVjhPOvT-26" connectable="0" vertex="1">
          <mxGeometry x="1" relative="1" as="geometry">
            <mxPoint x="20" as="offset" />
          </mxGeometry>
        </mxCell>
        <mxCell id="QeXP5KTg3SGVcVjhPOvT-28" value="WARDEN" style="whiteSpace=wrap;html=1;align=center;strokeColor=light-dark(#000000,#000000);verticalAlign=middle;fontFamily=Helvetica;fontSize=14;fontColor=#ffffff;labelBackgroundColor=light-dark(#FFFFFF,#FFFFFF);fillColor=light-dark(#000000,#FFFFFF);" parent="1" vertex="1">
          <mxGeometry x="1100" y="200" width="100" height="40" as="geometry" />
        </mxCell>
        <mxCell id="QeXP5KTg3SGVcVjhPOvT-29" value="REPRESENTATIVES" style="whiteSpace=wrap;html=1;align=center;strokeColor=light-dark(#000000,#000000);verticalAlign=middle;fontFamily=Helvetica;fontSize=14;fontColor=#ffffff;labelBackgroundColor=light-dark(#FFFFFF,#FFFFFF);fillColor=light-dark(#000000,#FFFFFF);" parent="1" vertex="1">
          <mxGeometry x="550" y="610" width="160" height="40" as="geometry" />
        </mxCell>
        <mxCell id="QeXP5KTg3SGVcVjhPOvT-30" value="WORKERS" style="whiteSpace=wrap;html=1;align=center;strokeColor=light-dark(#000000,#000000);verticalAlign=middle;fontFamily=Helvetica;fontSize=14;fontColor=#ffffff;labelBackgroundColor=light-dark(#FFFFFF,#FFFFFF);fillColor=light-dark(#000000,#FFFFFF);" parent="1" vertex="1">
          <mxGeometry x="1100" y="340" width="100" height="40" as="geometry" />
        </mxCell>
        <mxCell id="QeXP5KTg3SGVcVjhPOvT-33" value="Vendor" style="whiteSpace=wrap;html=1;align=center;strokeColor=light-dark(#000000,#000000);verticalAlign=middle;fontFamily=Helvetica;fontSize=14;fontColor=#ffffff;labelBackgroundColor=light-dark(#FFFFFF,#FFFFFF);fillColor=light-dark(#000000,#FFFFFF);" parent="1" vertex="1">
          <mxGeometry x="390" y="100" width="100" height="40" as="geometry" />
        </mxCell>
        <mxCell id="QeXP5KTg3SGVcVjhPOvT-34" style="edgeStyle=none;shape=connector;rounded=0;orthogonalLoop=1;jettySize=auto;html=1;exitX=0.25;exitY=1;exitDx=0;exitDy=0;strokeColor=light-dark(#000000,#000000);align=center;verticalAlign=middle;fontFamily=Helvetica;fontSize=14;fontColor=#ffffff;labelBackgroundColor=light-dark(#FFFFFF,#FFFFFF);endArrow=none;" parent="1" source="QeXP5KTg3SGVcVjhPOvT-33" target="QeXP5KTg3SGVcVjhPOvT-33" edge="1">
          <mxGeometry relative="1" as="geometry" />
        </mxCell>
        <mxCell id="4PwPoWEMqAy4mN4PP2mZ-1" value="" style="rounded=0;whiteSpace=wrap;html=1;strokeColor=light-dark(#000000,#000000);fillColor=none;strokeWidth=5;" parent="1" vertex="1">
          <mxGeometry x="-110" y="-60" width="1520" height="860" as="geometry" />
        </mxCell>
        <mxCell id="4PwPoWEMqAy4mN4PP2mZ-7" value="Works for" style="shape=rhombus;perimeter=rhombusPerimeter;whiteSpace=wrap;html=1;align=center;strokeColor=light-dark(#000000,#000000);verticalAlign=middle;fontFamily=Helvetica;fontSize=14;fontColor=#ffffff;labelBackgroundColor=light-dark(#FFFFFF,#FFFFFF);fillColor=light-dark(#000000,#FFFFFF);rotation=0;" parent="1" vertex="1">
          <mxGeometry x="850" y="330" width="110" height="60" as="geometry" />
        </mxCell>
        <mxCell id="4PwPoWEMqAy4mN4PP2mZ-8" value="issue tendor" style="shape=rhombus;perimeter=rhombusPerimeter;whiteSpace=wrap;html=1;align=center;strokeColor=light-dark(#000000,#000000);verticalAlign=middle;fontFamily=Helvetica;fontSize=14;fontColor=#ffffff;labelBackgroundColor=light-dark(#FFFFFF,#FFFFFF);fillColor=light-dark(#000000,#FFFFFF);rotation=0;" parent="1" vertex="1">
          <mxGeometry x="440" y="240" width="130" height="80" as="geometry" />
        </mxCell>
        <mxCell id="4PwPoWEMqAy4mN4PP2mZ-9" value="Supervises" style="shape=rhombus;perimeter=rhombusPerimeter;whiteSpace=wrap;html=1;align=center;strokeColor=light-dark(#000000,#000000);verticalAlign=middle;fontFamily=Helvetica;fontSize=14;fontColor=#ffffff;labelBackgroundColor=light-dark(#FFFFFF,#FFFFFF);fillColor=light-dark(#000000,#FFFFFF);rotation=340;" parent="1" vertex="1">
          <mxGeometry x="840" y="250" width="130" height="60" as="geometry" />
        </mxCell>
        <mxCell id="4PwPoWEMqAy4mN4PP2mZ-14" value="has" style="shape=rhombus;perimeter=rhombusPerimeter;whiteSpace=wrap;html=1;align=center;strokeColor=light-dark(#000000,#000000);verticalAlign=middle;fontFamily=Helvetica;fontSize=14;fontColor=#ffffff;labelBackgroundColor=light-dark(#FFFFFF,#FFFFFF);fillColor=light-dark(#000000,#FFFFFF);rotation=0;direction=south;" parent="1" vertex="1">
          <mxGeometry x="580" y="465" width="60" height="80" as="geometry" />
        </mxCell>
        <mxCell id="4PwPoWEMqAy4mN4PP2mZ-17" value="SPECIAL DINNER" style="shape=ext;margin=3;double=1;whiteSpace=wrap;html=1;align=center;fontFamily=Helvetica;fontSize=14;fontColor=#ffffff;labelBackgroundColor=light-dark(#FFFFFF,#FFFFFF);strokeColor=light-dark(#000000,#000000);verticalAlign=middle;fillColor=light-dark(#000000,#FFFFFF);" parent="1" vertex="1">
          <mxGeometry x="1060" y="460" width="160" height="40" as="geometry" />
        </mxCell>
        <mxCell id="4PwPoWEMqAy4mN4PP2mZ-18" value="" style="edgeStyle=orthogonalEdgeStyle;rounded=0;orthogonalLoop=1;jettySize=auto;html=1;fontFamily=Helvetica;fontSize=14;fontColor=#ffffff;labelBackgroundColor=light-dark(#FFFFFF,#FFFFFF);strokeColor=none;shape=link;" parent="1" source="QeXP5KTg3SGVcVjhPOvT-17" target="QeXP5KTg3SGVcVjhPOvT-14" edge="1">
          <mxGeometry relative="1" as="geometry">
            <mxPoint x="544.6399999999999" y="321.8699999999999" as="targetPoint" />
            <mxPoint x="370" y="360" as="sourcePoint" />
          </mxGeometry>
        </mxCell>
        <mxCell id="QeXP5KTg3SGVcVjhPOvT-14" value="&lt;font style=&quot;&quot;&gt;&lt;b&gt;MESS&lt;/b&gt;&lt;/font&gt;" style="whiteSpace=wrap;html=1;align=center;labelBackgroundColor=light-dark(#FFFFFF,#FFFFFF);fillColor=light-dark(#000000,#FFFFFF);fontColor=light-dark(#FFFFFF,#000000);strokeColor=light-dark(#000000,#000000);fontSize=14;textShadow=0;" parent="1" vertex="1">
          <mxGeometry x="620" y="340" width="100" height="40" as="geometry" />
        </mxCell>
        <mxCell id="4PwPoWEMqAy4mN4PP2mZ-21" value="" style="endArrow=none;html=1;rounded=0;fontFamily=Helvetica;fontSize=14;fontColor=#ffffff;labelBackgroundColor=light-dark(#FFFFFF,#FFFFFF);entryX=1;entryY=0.5;entryDx=0;entryDy=0;exitX=0;exitY=0.5;exitDx=0;exitDy=0;strokeColor=light-dark(#000000,#000000);" parent="1" source="4PwPoWEMqAy4mN4PP2mZ-7" target="QeXP5KTg3SGVcVjhPOvT-14" edge="1">
          <mxGeometry relative="1" as="geometry">
            <mxPoint x="660" y="410" as="sourcePoint" />
            <mxPoint x="580" y="410" as="targetPoint" />
          </mxGeometry>
        </mxCell>
        <mxCell id="4PwPoWEMqAy4mN4PP2mZ-22" value="1" style="resizable=0;html=1;whiteSpace=wrap;align=right;verticalAlign=bottom;strokeColor=light-dark(#000000,#000000);fontFamily=Helvetica;fontSize=14;fontColor=#ffffff;labelBackgroundColor=light-dark(#FFFFFF,#FFFFFF);fillColor=light-dark(#000000,#FFFFFF);" parent="4PwPoWEMqAy4mN4PP2mZ-21" connectable="0" vertex="1">
          <mxGeometry x="1" relative="1" as="geometry">
            <mxPoint x="32" as="offset" />
          </mxGeometry>
        </mxCell>
        <mxCell id="4PwPoWEMqAy4mN4PP2mZ-23" value="" style="endArrow=none;html=1;rounded=0;fontFamily=Helvetica;fontSize=14;fontColor=#ffffff;labelBackgroundColor=light-dark(#FFFFFF,#FFFFFF);entryX=1;entryY=0.5;entryDx=0;entryDy=0;exitX=0;exitY=0.5;exitDx=0;exitDy=0;strokeColor=light-dark(#000000,#000000);" parent="1" source="QeXP5KTg3SGVcVjhPOvT-30" target="4PwPoWEMqAy4mN4PP2mZ-7" edge="1">
          <mxGeometry relative="1" as="geometry">
            <mxPoint x="260" y="380" as="sourcePoint" />
            <mxPoint x="180" y="380" as="targetPoint" />
          </mxGeometry>
        </mxCell>
        <mxCell id="4PwPoWEMqAy4mN4PP2mZ-24" value="N" style="resizable=0;html=1;whiteSpace=wrap;align=right;verticalAlign=bottom;strokeColor=light-dark(#000000,#000000);fontFamily=Helvetica;fontSize=14;fontColor=#ffffff;labelBackgroundColor=light-dark(#FFFFFF,#FFFFFF);fillColor=light-dark(#000000,#FFFFFF);" parent="4PwPoWEMqAy4mN4PP2mZ-23" connectable="0" vertex="1">
          <mxGeometry x="1" relative="1" as="geometry">
            <mxPoint x="120" y="-10" as="offset" />
          </mxGeometry>
        </mxCell>
        <mxCell id="4PwPoWEMqAy4mN4PP2mZ-25" style="edgeStyle=orthogonalEdgeStyle;shape=link;rounded=0;orthogonalLoop=1;jettySize=auto;html=1;exitX=0.5;exitY=1;exitDx=0;exitDy=0;align=center;verticalAlign=middle;fontFamily=Helvetica;fontSize=14;fontColor=#ffffff;labelBackgroundColor=light-dark(#FFFFFF,#FFFFFF);endArrow=classic;" parent="1" source="QeXP5KTg3SGVcVjhPOvT-33" target="QeXP5KTg3SGVcVjhPOvT-33" edge="1">
          <mxGeometry relative="1" as="geometry" />
        </mxCell>
        <mxCell id="4PwPoWEMqAy4mN4PP2mZ-28" value="" style="endArrow=none;html=1;rounded=0;fontFamily=Helvetica;fontSize=14;fontColor=#ffffff;labelBackgroundColor=light-dark(#FFFFFF,#FFFFFF);exitX=0;exitY=0.5;exitDx=0;exitDy=0;strokeColor=light-dark(#000000,#000000);entryX=0.75;entryY=1;entryDx=0;entryDy=0;" parent="1" source="mef58CMw31DaKBu1uZpw-34" target="QeXP5KTg3SGVcVjhPOvT-14" edge="1">
          <mxGeometry relative="1" as="geometry">
            <mxPoint x="769.9248247277133" y="471.3296784498857" as="sourcePoint" />
            <mxPoint x="680" y="390" as="targetPoint" />
          </mxGeometry>
        </mxCell>
        <mxCell id="4PwPoWEMqAy4mN4PP2mZ-29" value="1" style="resizable=0;html=1;whiteSpace=wrap;align=right;verticalAlign=bottom;strokeColor=light-dark(#000000,#000000);fontFamily=Helvetica;fontSize=14;fontColor=#ffffff;labelBackgroundColor=light-dark(#FFFFFF,#FFFFFF);fillColor=light-dark(#000000,#FFFFFF);" parent="4PwPoWEMqAy4mN4PP2mZ-28" connectable="0" vertex="1">
          <mxGeometry x="1" relative="1" as="geometry">
            <mxPoint x="8" y="40" as="offset" />
          </mxGeometry>
        </mxCell>
        <mxCell id="4PwPoWEMqAy4mN4PP2mZ-32" value="" style="endArrow=none;html=1;rounded=0;fontFamily=Helvetica;fontSize=14;fontColor=#ffffff;labelBackgroundColor=light-dark(#FFFFFF,#FFFFFF);entryX=1;entryY=1;entryDx=0;entryDy=0;exitX=0;exitY=0.5;exitDx=0;exitDy=0;strokeColor=light-dark(#000000,#000000);" parent="1" source="mef58CMw31DaKBu1uZpw-23" target="QeXP5KTg3SGVcVjhPOvT-14" edge="1">
          <mxGeometry relative="1" as="geometry">
            <mxPoint x="851.3629669484376" y="429.64723819589926" as="sourcePoint" />
            <mxPoint x="630" y="400" as="targetPoint" />
          </mxGeometry>
        </mxCell>
        <mxCell id="4PwPoWEMqAy4mN4PP2mZ-33" value="1" style="resizable=0;html=1;whiteSpace=wrap;align=right;verticalAlign=bottom;strokeColor=light-dark(#000000,#000000);fontFamily=Helvetica;fontSize=14;fontColor=#ffffff;labelBackgroundColor=light-dark(#FFFFFF,#FFFFFF);fillColor=light-dark(#000000,#FFFFFF);" parent="4PwPoWEMqAy4mN4PP2mZ-32" connectable="0" vertex="1">
          <mxGeometry x="1" relative="1" as="geometry">
            <mxPoint x="40" y="10" as="offset" />
          </mxGeometry>
        </mxCell>
        <mxCell id="4PwPoWEMqAy4mN4PP2mZ-34" value="" style="endArrow=none;html=1;rounded=0;fontFamily=Helvetica;fontSize=14;fontColor=#ffffff;labelBackgroundColor=light-dark(#FFFFFF,#FFFFFF);entryX=0.5;entryY=0;entryDx=0;entryDy=0;exitX=1;exitY=0.5;exitDx=0;exitDy=0;strokeColor=light-dark(#000000,#000000);" parent="1" source="4PwPoWEMqAy4mN4PP2mZ-14" target="QeXP5KTg3SGVcVjhPOvT-29" edge="1">
          <mxGeometry relative="1" as="geometry">
            <mxPoint x="770" y="410" as="sourcePoint" />
            <mxPoint x="640" y="410" as="targetPoint" />
          </mxGeometry>
        </mxCell>
        <mxCell id="4PwPoWEMqAy4mN4PP2mZ-35" value="N" style="resizable=0;html=1;whiteSpace=wrap;align=right;verticalAlign=bottom;strokeColor=light-dark(#000000,#000000);fontFamily=Helvetica;fontSize=14;fontColor=#ffffff;labelBackgroundColor=light-dark(#FFFFFF,#FFFFFF);fillColor=light-dark(#000000,#FFFFFF);" parent="4PwPoWEMqAy4mN4PP2mZ-34" connectable="0" vertex="1">
          <mxGeometry x="1" relative="1" as="geometry">
            <mxPoint x="25" y="-10" as="offset" />
          </mxGeometry>
        </mxCell>
        <mxCell id="4PwPoWEMqAy4mN4PP2mZ-36" value="" style="endArrow=none;html=1;rounded=0;fontFamily=Helvetica;fontSize=14;fontColor=#ffffff;labelBackgroundColor=light-dark(#FFFFFF,#FFFFFF);entryX=0.25;entryY=1;entryDx=0;entryDy=0;strokeColor=light-dark(#000000,#000000);exitX=0;exitY=0.5;exitDx=0;exitDy=0;" parent="1" source="4PwPoWEMqAy4mN4PP2mZ-14" target="QeXP5KTg3SGVcVjhPOvT-14" edge="1">
          <mxGeometry relative="1" as="geometry">
            <mxPoint x="610" y="470" as="sourcePoint" />
            <mxPoint x="650" y="420" as="targetPoint" />
          </mxGeometry>
        </mxCell>
        <mxCell id="4PwPoWEMqAy4mN4PP2mZ-37" value="1" style="resizable=0;html=1;whiteSpace=wrap;align=right;verticalAlign=bottom;strokeColor=light-dark(#000000,#000000);fontFamily=Helvetica;fontSize=14;fontColor=#ffffff;labelBackgroundColor=light-dark(#FFFFFF,#FFFFFF);fillColor=light-dark(#000000,#FFFFFF);" parent="4PwPoWEMqAy4mN4PP2mZ-36" connectable="0" vertex="1">
          <mxGeometry x="1" relative="1" as="geometry">
            <mxPoint x="5" y="40" as="offset" />
          </mxGeometry>
        </mxCell>
        <mxCell id="4PwPoWEMqAy4mN4PP2mZ-42" value="" style="endArrow=none;html=1;rounded=0;fontFamily=Helvetica;fontSize=14;fontColor=#ffffff;labelBackgroundColor=light-dark(#FFFFFF,#FFFFFF);entryX=0;entryY=0;entryDx=0;entryDy=0;exitX=1;exitY=0.5;exitDx=0;exitDy=0;strokeColor=light-dark(#000000,#000000);" parent="1" source="4PwPoWEMqAy4mN4PP2mZ-8" target="QeXP5KTg3SGVcVjhPOvT-14" edge="1">
          <mxGeometry relative="1" as="geometry">
            <mxPoint x="730" y="370" as="sourcePoint" />
            <mxPoint x="600" y="370" as="targetPoint" />
          </mxGeometry>
        </mxCell>
        <mxCell id="4PwPoWEMqAy4mN4PP2mZ-43" value="N" style="resizable=0;html=1;whiteSpace=wrap;align=right;verticalAlign=bottom;strokeColor=light-dark(#000000,#000000);fontFamily=Helvetica;fontSize=14;fontColor=#ffffff;labelBackgroundColor=light-dark(#FFFFFF,#FFFFFF);fillColor=light-dark(#000000,#FFFFFF);" parent="4PwPoWEMqAy4mN4PP2mZ-42" connectable="0" vertex="1">
          <mxGeometry x="1" relative="1" as="geometry">
            <mxPoint x="-30" as="offset" />
          </mxGeometry>
        </mxCell>
        <mxCell id="4PwPoWEMqAy4mN4PP2mZ-44" value="" style="endArrow=none;html=1;rounded=0;fontFamily=Helvetica;fontSize=14;fontColor=#ffffff;labelBackgroundColor=light-dark(#FFFFFF,#FFFFFF);entryX=0.5;entryY=1;entryDx=0;entryDy=0;exitX=0;exitY=0.5;exitDx=0;exitDy=0;strokeColor=light-dark(#000000,#000000);" parent="1" source="4PwPoWEMqAy4mN4PP2mZ-8" target="QeXP5KTg3SGVcVjhPOvT-33" edge="1">
          <mxGeometry relative="1" as="geometry">
            <mxPoint x="740" y="380" as="sourcePoint" />
            <mxPoint x="610" y="380" as="targetPoint" />
          </mxGeometry>
        </mxCell>
        <mxCell id="4PwPoWEMqAy4mN4PP2mZ-45" value="1" style="resizable=0;html=1;whiteSpace=wrap;align=right;verticalAlign=bottom;strokeColor=light-dark(#000000,#000000);fontFamily=Helvetica;fontSize=14;fontColor=#ffffff;labelBackgroundColor=light-dark(#FFFFFF,#FFFFFF);fillColor=light-dark(#000000,#FFFFFF);" parent="4PwPoWEMqAy4mN4PP2mZ-44" connectable="0" vertex="1">
          <mxGeometry x="1" relative="1" as="geometry">
            <mxPoint x="-10" y="30" as="offset" />
          </mxGeometry>
        </mxCell>
        <mxCell id="4PwPoWEMqAy4mN4PP2mZ-47" value="" style="endArrow=none;html=1;rounded=0;fontFamily=Helvetica;fontSize=14;fontColor=#ffffff;labelBackgroundColor=light-dark(#FFFFFF,#FFFFFF);entryX=0.622;entryY=0.967;entryDx=0;entryDy=0;exitX=0;exitY=0.5;exitDx=0;exitDy=0;strokeColor=light-dark(#000000,#000000);entryPerimeter=0;" parent="1" source="mef58CMw31DaKBu1uZpw-28" target="QeXP5KTg3SGVcVjhPOvT-15" edge="1">
          <mxGeometry relative="1" as="geometry">
            <mxPoint x="121.88000000000011" y="455" as="sourcePoint" />
            <mxPoint x="620" y="390" as="targetPoint" />
          </mxGeometry>
        </mxCell>
        <mxCell id="4PwPoWEMqAy4mN4PP2mZ-48" value="1" style="resizable=0;html=1;whiteSpace=wrap;align=right;verticalAlign=bottom;strokeColor=light-dark(#000000,#000000);fontFamily=Helvetica;fontSize=14;fontColor=#ffffff;labelBackgroundColor=light-dark(#FFFFFF,#FFFFFF);fillColor=light-dark(#000000,#FFFFFF);" parent="4PwPoWEMqAy4mN4PP2mZ-47" connectable="0" vertex="1">
          <mxGeometry x="1" relative="1" as="geometry">
            <mxPoint x="-5" y="30" as="offset" />
          </mxGeometry>
        </mxCell>
        <mxCell id="4PwPoWEMqAy4mN4PP2mZ-57" value="" style="endArrow=none;html=1;rounded=0;fontFamily=Helvetica;fontSize=14;fontColor=#ffffff;labelBackgroundColor=light-dark(#FFFFFF,#FFFFFF);entryX=0;entryY=1;entryDx=0;entryDy=0;strokeColor=light-dark(#000000,#000000);exitX=1;exitY=0.5;exitDx=0;exitDy=0;" parent="1" source="mef58CMw31DaKBu1uZpw-29" target="QeXP5KTg3SGVcVjhPOvT-14" edge="1">
          <mxGeometry relative="1" as="geometry">
            <mxPoint x="480" y="470" as="sourcePoint" />
            <mxPoint x="670" y="440" as="targetPoint" />
          </mxGeometry>
        </mxCell>
        <mxCell id="4PwPoWEMqAy4mN4PP2mZ-58" value="!" style="resizable=0;html=1;whiteSpace=wrap;align=right;verticalAlign=bottom;strokeColor=light-dark(#000000,#000000);fontFamily=Helvetica;fontSize=14;fontColor=#ffffff;labelBackgroundColor=light-dark(#FFFFFF,#FFFFFF);fillColor=light-dark(#000000,#FFFFFF);" parent="4PwPoWEMqAy4mN4PP2mZ-57" connectable="0" vertex="1">
          <mxGeometry x="1" relative="1" as="geometry">
            <mxPoint x="-72" y="20" as="offset" />
          </mxGeometry>
        </mxCell>
        <mxCell id="4PwPoWEMqAy4mN4PP2mZ-59" value="" style="endArrow=none;html=1;rounded=0;fontFamily=Helvetica;fontSize=14;fontColor=#ffffff;labelBackgroundColor=light-dark(#FFFFFF,#FFFFFF);entryX=0;entryY=0.5;entryDx=0;entryDy=0;exitX=1;exitY=0.5;exitDx=0;exitDy=0;strokeColor=light-dark(#000000,#000000);" parent="1" source="4PwPoWEMqAy4mN4PP2mZ-9" target="QeXP5KTg3SGVcVjhPOvT-28" edge="1">
          <mxGeometry relative="1" as="geometry">
            <mxPoint x="810" y="450" as="sourcePoint" />
            <mxPoint x="680" y="450" as="targetPoint" />
          </mxGeometry>
        </mxCell>
        <mxCell id="4PwPoWEMqAy4mN4PP2mZ-60" value="N" style="resizable=0;html=1;whiteSpace=wrap;align=right;verticalAlign=bottom;strokeColor=light-dark(#000000,#000000);fontFamily=Helvetica;fontSize=14;fontColor=#ffffff;labelBackgroundColor=light-dark(#FFFFFF,#FFFFFF);fillColor=light-dark(#000000,#FFFFFF);" parent="4PwPoWEMqAy4mN4PP2mZ-59" connectable="0" vertex="1">
          <mxGeometry x="1" relative="1" as="geometry">
            <mxPoint x="-10" as="offset" />
          </mxGeometry>
        </mxCell>
        <mxCell id="4PwPoWEMqAy4mN4PP2mZ-61" value="" style="endArrow=none;html=1;rounded=0;fontFamily=Helvetica;fontSize=14;fontColor=#ffffff;labelBackgroundColor=light-dark(#FFFFFF,#FFFFFF);entryX=1;entryY=0;entryDx=0;entryDy=0;exitX=0;exitY=0.5;exitDx=0;exitDy=0;strokeColor=light-dark(#000000,#000000);" parent="1" source="4PwPoWEMqAy4mN4PP2mZ-9" target="QeXP5KTg3SGVcVjhPOvT-14" edge="1">
          <mxGeometry relative="1" as="geometry">
            <mxPoint x="820" y="460" as="sourcePoint" />
            <mxPoint x="690" y="460" as="targetPoint" />
          </mxGeometry>
        </mxCell>
        <mxCell id="4PwPoWEMqAy4mN4PP2mZ-62" value="1" style="resizable=0;html=1;whiteSpace=wrap;align=right;verticalAlign=bottom;strokeColor=light-dark(#000000,#000000);fontFamily=Helvetica;fontSize=14;fontColor=#ffffff;labelBackgroundColor=light-dark(#FFFFFF,#FFFFFF);fillColor=light-dark(#000000,#FFFFFF);" parent="4PwPoWEMqAy4mN4PP2mZ-61" connectable="0" vertex="1">
          <mxGeometry x="1" relative="1" as="geometry">
            <mxPoint x="23" y="-10" as="offset" />
          </mxGeometry>
        </mxCell>
        <mxCell id="4PwPoWEMqAy4mN4PP2mZ-67" value="" style="endArrow=none;html=1;rounded=0;fontFamily=Helvetica;fontSize=14;fontColor=#ffffff;labelBackgroundColor=light-dark(#FFFFFF,#FFFFFF);entryX=0;entryY=0.5;entryDx=0;entryDy=0;exitX=1;exitY=0.5;exitDx=0;exitDy=0;strokeColor=light-dark(#000000,#000000);" parent="1" source="mef58CMw31DaKBu1uZpw-22" target="QeXP5KTg3SGVcVjhPOvT-33" edge="1">
          <mxGeometry relative="1" as="geometry">
            <mxPoint x="340" y="120" as="sourcePoint" />
            <mxPoint x="720" y="490" as="targetPoint" />
          </mxGeometry>
        </mxCell>
        <mxCell id="4PwPoWEMqAy4mN4PP2mZ-68" value="N" style="resizable=0;html=1;whiteSpace=wrap;align=right;verticalAlign=bottom;strokeColor=light-dark(#000000,#000000);fontFamily=Helvetica;fontSize=14;fontColor=#ffffff;labelBackgroundColor=light-dark(#FFFFFF,#FFFFFF);fillColor=light-dark(#000000,#FFFFFF);" parent="4PwPoWEMqAy4mN4PP2mZ-67" connectable="0" vertex="1">
          <mxGeometry x="1" relative="1" as="geometry">
            <mxPoint x="-8" y="-10" as="offset" />
          </mxGeometry>
        </mxCell>
        <mxCell id="4PwPoWEMqAy4mN4PP2mZ-69" value="" style="endArrow=none;html=1;rounded=0;fontFamily=Helvetica;fontSize=14;fontColor=#ffffff;labelBackgroundColor=light-dark(#FFFFFF,#FFFFFF);entryX=1;entryY=0.5;entryDx=0;entryDy=0;exitX=0;exitY=0.5;exitDx=0;exitDy=0;strokeColor=light-dark(#000000,#000000);" parent="1" target="mef58CMw31DaKBu1uZpw-16" edge="1">
          <mxGeometry relative="1" as="geometry">
            <mxPoint x="250" y="120" as="sourcePoint" />
            <mxPoint x="200" y="100" as="targetPoint" />
          </mxGeometry>
        </mxCell>
        <mxCell id="4PwPoWEMqAy4mN4PP2mZ-70" value="1" style="resizable=0;html=1;whiteSpace=wrap;align=right;verticalAlign=bottom;strokeColor=light-dark(#000000,#000000);fontFamily=Helvetica;fontSize=14;fontColor=#ffffff;labelBackgroundColor=light-dark(#FFFFFF,#FFFFFF);fillColor=light-dark(#000000,#FFFFFF);" parent="4PwPoWEMqAy4mN4PP2mZ-69" connectable="0" vertex="1">
          <mxGeometry x="1" relative="1" as="geometry">
            <mxPoint x="20" y="-10" as="offset" />
          </mxGeometry>
        </mxCell>
        <mxCell id="4PwPoWEMqAy4mN4PP2mZ-72" value="Name" style="ellipse;whiteSpace=wrap;html=1;align=center;strokeColor=light-dark(#000000,#000000);verticalAlign=middle;fontFamily=Helvetica;fontSize=14;fontColor=#ffffff;labelBackgroundColor=light-dark(#FFFFFF,#FFFFFF);fillColor=light-dark(#000000,#FFFFFF);" parent="1" vertex="1">
          <mxGeometry x="-55" y="320" width="55" height="40" as="geometry" />
        </mxCell>
        <mxCell id="4PwPoWEMqAy4mN4PP2mZ-73" value="Roll_number" style="ellipse;whiteSpace=wrap;html=1;align=center;fontStyle=4;strokeColor=light-dark(#000000,#000000);verticalAlign=middle;fontFamily=Helvetica;fontSize=14;fontColor=#ffffff;labelBackgroundColor=light-dark(#FFFFFF,#FFFFFF);fillColor=light-dark(#000000,#FFFFFF);" parent="1" vertex="1">
          <mxGeometry x="-30" y="270" width="90" height="40" as="geometry" />
        </mxCell>
        <mxCell id="4PwPoWEMqAy4mN4PP2mZ-75" value="Department" style="ellipse;whiteSpace=wrap;html=1;align=center;strokeColor=light-dark(#000000,#000000);verticalAlign=middle;fontFamily=Helvetica;fontSize=14;fontColor=#ffffff;labelBackgroundColor=light-dark(#FFFFFF,#FFFFFF);fillColor=light-dark(#000000,#FFFFFF);" parent="1" vertex="1">
          <mxGeometry x="-30" y="425" width="105" height="40" as="geometry" />
        </mxCell>
        <mxCell id="4PwPoWEMqAy4mN4PP2mZ-79" value="Contact_no." style="ellipse;shape=doubleEllipse;margin=3;whiteSpace=wrap;html=1;align=center;strokeColor=light-dark(#000000,#000000);verticalAlign=middle;fontFamily=Helvetica;fontSize=14;fontColor=#ffffff;labelBackgroundColor=light-dark(#FFFFFF,#FFFFFF);fillColor=light-dark(#000000,#FFFFFF);" parent="1" vertex="1">
          <mxGeometry x="-70" y="380" width="100" height="40" as="geometry" />
        </mxCell>
        <mxCell id="4PwPoWEMqAy4mN4PP2mZ-84" value="" style="endArrow=none;html=1;rounded=0;fontFamily=Helvetica;fontSize=14;fontColor=#ffffff;labelBackgroundColor=light-dark(#FFFFFF,#FFFFFF);entryX=0;entryY=0.5;entryDx=0;entryDy=0;exitX=1;exitY=0;exitDx=0;exitDy=0;strokeColor=light-dark(#000000,#000000);" parent="1" source="4PwPoWEMqAy4mN4PP2mZ-79" target="QeXP5KTg3SGVcVjhPOvT-15" edge="1">
          <mxGeometry relative="1" as="geometry">
            <mxPoint x="485" y="515" as="sourcePoint" />
            <mxPoint x="665" y="400" as="targetPoint" />
          </mxGeometry>
        </mxCell>
        <mxCell id="4PwPoWEMqAy4mN4PP2mZ-86" value="" style="endArrow=none;html=1;rounded=0;fontFamily=Helvetica;fontSize=14;fontColor=#ffffff;labelBackgroundColor=light-dark(#FFFFFF,#FFFFFF);entryX=0;entryY=0.25;entryDx=0;entryDy=0;exitX=1;exitY=0.5;exitDx=0;exitDy=0;strokeColor=light-dark(#000000,#000000);" parent="1" source="4PwPoWEMqAy4mN4PP2mZ-72" target="QeXP5KTg3SGVcVjhPOvT-15" edge="1">
          <mxGeometry relative="1" as="geometry">
            <mxPoint x="25" y="396" as="sourcePoint" />
            <mxPoint x="70" y="370" as="targetPoint" />
          </mxGeometry>
        </mxCell>
        <mxCell id="4PwPoWEMqAy4mN4PP2mZ-88" value="" style="endArrow=none;html=1;rounded=0;fontFamily=Helvetica;fontSize=14;fontColor=#ffffff;labelBackgroundColor=light-dark(#FFFFFF,#FFFFFF);entryX=0.25;entryY=1;entryDx=0;entryDy=0;exitX=0.5;exitY=0;exitDx=0;exitDy=0;strokeColor=light-dark(#000000,#000000);" parent="1" source="4PwPoWEMqAy4mN4PP2mZ-75" target="QeXP5KTg3SGVcVjhPOvT-15" edge="1">
          <mxGeometry relative="1" as="geometry">
            <mxPoint x="45" y="416" as="sourcePoint" />
            <mxPoint x="90" y="390" as="targetPoint" />
          </mxGeometry>
        </mxCell>
        <mxCell id="4PwPoWEMqAy4mN4PP2mZ-89" value="" style="endArrow=none;html=1;rounded=0;fontFamily=Helvetica;fontSize=14;fontColor=#ffffff;labelBackgroundColor=light-dark(#FFFFFF,#FFFFFF);entryX=0.25;entryY=0;entryDx=0;entryDy=0;exitX=1;exitY=1;exitDx=0;exitDy=0;strokeColor=light-dark(#000000,#000000);" parent="1" source="4PwPoWEMqAy4mN4PP2mZ-73" target="QeXP5KTg3SGVcVjhPOvT-15" edge="1">
          <mxGeometry relative="1" as="geometry">
            <mxPoint x="55" y="426" as="sourcePoint" />
            <mxPoint x="100" y="400" as="targetPoint" />
          </mxGeometry>
        </mxCell>
        <mxCell id="4PwPoWEMqAy4mN4PP2mZ-90" value="" style="endArrow=none;html=1;rounded=0;fontFamily=Helvetica;fontSize=14;fontColor=#ffffff;labelBackgroundColor=light-dark(#FFFFFF,#FFFFFF);entryX=1;entryY=1;entryDx=0;entryDy=0;exitX=0;exitY=0.5;exitDx=0;exitDy=0;strokeColor=light-dark(#000000,#000000);" parent="1" source="4PwPoWEMqAy4mN4PP2mZ-166" target="mef58CMw31DaKBu1uZpw-10" edge="1">
          <mxGeometry relative="1" as="geometry">
            <mxPoint x="920" y="20" as="sourcePoint" />
            <mxPoint x="1165" y="690" as="targetPoint" />
          </mxGeometry>
        </mxCell>
        <mxCell id="4PwPoWEMqAy4mN4PP2mZ-98" value="" style="endArrow=none;html=1;rounded=0;fontFamily=Helvetica;fontSize=14;fontColor=#ffffff;labelBackgroundColor=light-dark(#FFFFFF,#FFFFFF);entryX=0.75;entryY=0;entryDx=0;entryDy=0;exitX=0;exitY=1;exitDx=0;exitDy=0;strokeColor=light-dark(#000000,#000000);" parent="1" source="4PwPoWEMqAy4mN4PP2mZ-115" target="QeXP5KTg3SGVcVjhPOvT-14" edge="1">
          <mxGeometry relative="1" as="geometry">
            <mxPoint x="-260" y="30" as="sourcePoint" />
            <mxPoint x="-200" y="40" as="targetPoint" />
          </mxGeometry>
        </mxCell>
        <mxCell id="4PwPoWEMqAy4mN4PP2mZ-99" value="" style="endArrow=none;html=1;rounded=0;fontFamily=Helvetica;fontSize=14;fontColor=#ffffff;labelBackgroundColor=light-dark(#FFFFFF,#FFFFFF);entryX=0.25;entryY=0;entryDx=0;entryDy=0;exitX=0.5;exitY=1;exitDx=0;exitDy=0;strokeColor=light-dark(#000000,#000000);" parent="1" source="4PwPoWEMqAy4mN4PP2mZ-117" target="QeXP5KTg3SGVcVjhPOvT-14" edge="1">
          <mxGeometry relative="1" as="geometry">
            <mxPoint x="-250" y="40" as="sourcePoint" />
            <mxPoint x="-190" y="50" as="targetPoint" />
          </mxGeometry>
        </mxCell>
        <mxCell id="4PwPoWEMqAy4mN4PP2mZ-100" value="" style="endArrow=none;html=1;rounded=0;fontFamily=Helvetica;fontSize=14;fontColor=#ffffff;labelBackgroundColor=light-dark(#FFFFFF,#FFFFFF);entryX=0.75;entryY=0;entryDx=0;entryDy=0;exitX=0.5;exitY=1;exitDx=0;exitDy=0;strokeColor=light-dark(#000000,#000000);" parent="1" source="4PwPoWEMqAy4mN4PP2mZ-116" target="QeXP5KTg3SGVcVjhPOvT-14" edge="1">
          <mxGeometry relative="1" as="geometry">
            <mxPoint x="-240" y="50" as="sourcePoint" />
            <mxPoint x="-180" y="60" as="targetPoint" />
          </mxGeometry>
        </mxCell>
        <mxCell id="4PwPoWEMqAy4mN4PP2mZ-101" value="" style="endArrow=none;html=1;rounded=0;fontFamily=Helvetica;fontSize=14;fontColor=#ffffff;labelBackgroundColor=light-dark(#FFFFFF,#FFFFFF);exitX=0;exitY=1;exitDx=0;exitDy=0;strokeColor=light-dark(#000000,#000000);entryX=0.5;entryY=0;entryDx=0;entryDy=0;" parent="1" source="4PwPoWEMqAy4mN4PP2mZ-118" target="4PwPoWEMqAy4mN4PP2mZ-8" edge="1">
          <mxGeometry relative="1" as="geometry">
            <mxPoint x="-230" y="60" as="sourcePoint" />
            <mxPoint x="480" y="250" as="targetPoint" />
          </mxGeometry>
        </mxCell>
        <mxCell id="4PwPoWEMqAy4mN4PP2mZ-102" value="" style="endArrow=none;html=1;rounded=0;fontFamily=Helvetica;fontSize=14;fontColor=#ffffff;labelBackgroundColor=light-dark(#FFFFFF,#FFFFFF);entryX=0.5;entryY=0;entryDx=0;entryDy=0;exitX=0.5;exitY=1;exitDx=0;exitDy=0;strokeColor=light-dark(#000000,#000000);" parent="1" source="4PwPoWEMqAy4mN4PP2mZ-119" target="4PwPoWEMqAy4mN4PP2mZ-8" edge="1">
          <mxGeometry relative="1" as="geometry">
            <mxPoint x="-220" y="70" as="sourcePoint" />
            <mxPoint x="-160" y="80" as="targetPoint" />
          </mxGeometry>
        </mxCell>
        <mxCell id="4PwPoWEMqAy4mN4PP2mZ-103" value="" style="endArrow=none;html=1;rounded=0;fontFamily=Helvetica;fontSize=14;fontColor=#ffffff;labelBackgroundColor=light-dark(#FFFFFF,#FFFFFF);entryX=0.5;entryY=0;entryDx=0;entryDy=0;exitX=0.5;exitY=1;exitDx=0;exitDy=0;strokeColor=light-dark(#000000,#000000);" parent="1" source="4PwPoWEMqAy4mN4PP2mZ-120" target="QeXP5KTg3SGVcVjhPOvT-33" edge="1">
          <mxGeometry relative="1" as="geometry">
            <mxPoint x="-210" y="80" as="sourcePoint" />
            <mxPoint x="-150" y="90" as="targetPoint" />
          </mxGeometry>
        </mxCell>
        <mxCell id="4PwPoWEMqAy4mN4PP2mZ-104" value="" style="endArrow=none;html=1;rounded=0;fontFamily=Helvetica;fontSize=14;fontColor=#ffffff;labelBackgroundColor=light-dark(#FFFFFF,#FFFFFF);entryX=0.25;entryY=0;entryDx=0;entryDy=0;exitX=0.5;exitY=1;exitDx=0;exitDy=0;strokeColor=light-dark(#000000,#000000);" parent="1" source="4PwPoWEMqAy4mN4PP2mZ-121" target="QeXP5KTg3SGVcVjhPOvT-33" edge="1">
          <mxGeometry relative="1" as="geometry">
            <mxPoint x="-200" y="90" as="sourcePoint" />
            <mxPoint x="-140" y="100" as="targetPoint" />
          </mxGeometry>
        </mxCell>
        <mxCell id="4PwPoWEMqAy4mN4PP2mZ-105" value="" style="endArrow=none;html=1;rounded=0;fontFamily=Helvetica;fontSize=14;fontColor=#ffffff;labelBackgroundColor=light-dark(#FFFFFF,#FFFFFF);entryX=0.75;entryY=0;entryDx=0;entryDy=0;exitX=0.5;exitY=1;exitDx=0;exitDy=0;strokeColor=light-dark(#000000,#000000);" parent="1" source="4PwPoWEMqAy4mN4PP2mZ-122" edge="1">
          <mxGeometry relative="1" as="geometry">
            <mxPoint x="-190" y="100" as="sourcePoint" />
            <mxPoint x="155" y="80" as="targetPoint" />
          </mxGeometry>
        </mxCell>
        <mxCell id="4PwPoWEMqAy4mN4PP2mZ-106" value="" style="endArrow=none;html=1;rounded=0;fontFamily=Helvetica;fontSize=14;fontColor=#ffffff;labelBackgroundColor=light-dark(#FFFFFF,#FFFFFF);exitX=0.5;exitY=1;exitDx=0;exitDy=0;strokeColor=light-dark(#000000,#000000);entryX=0.5;entryY=0;entryDx=0;entryDy=0;" parent="1" source="4PwPoWEMqAy4mN4PP2mZ-123" edge="1">
          <mxGeometry relative="1" as="geometry">
            <mxPoint x="-180" y="110" as="sourcePoint" />
            <mxPoint x="110" y="80" as="targetPoint" />
          </mxGeometry>
        </mxCell>
        <mxCell id="4PwPoWEMqAy4mN4PP2mZ-107" value="" style="endArrow=none;html=1;rounded=0;fontFamily=Helvetica;fontSize=14;fontColor=#ffffff;labelBackgroundColor=light-dark(#FFFFFF,#FFFFFF);exitX=0.662;exitY=0.994;exitDx=0;exitDy=0;strokeColor=light-dark(#000000,#000000);exitPerimeter=0;" parent="1" source="4PwPoWEMqAy4mN4PP2mZ-124" edge="1">
          <mxGeometry relative="1" as="geometry">
            <mxPoint x="-170" y="120" as="sourcePoint" />
            <mxPoint x="74.96513944223125" y="80" as="targetPoint" />
          </mxGeometry>
        </mxCell>
        <mxCell id="4PwPoWEMqAy4mN4PP2mZ-108" value="" style="endArrow=none;html=1;rounded=0;fontFamily=Helvetica;fontSize=14;fontColor=#ffffff;labelBackgroundColor=light-dark(#FFFFFF,#FFFFFF);entryX=0.5;entryY=0;entryDx=0;entryDy=0;exitX=0.75;exitY=1;exitDx=0;exitDy=0;strokeColor=light-dark(#000000,#000000);" parent="1" source="QeXP5KTg3SGVcVjhPOvT-29" target="4PwPoWEMqAy4mN4PP2mZ-125" edge="1">
          <mxGeometry relative="1" as="geometry">
            <mxPoint x="-160" y="130" as="sourcePoint" />
            <mxPoint x="-100" y="140" as="targetPoint" />
          </mxGeometry>
        </mxCell>
        <mxCell id="4PwPoWEMqAy4mN4PP2mZ-109" value="" style="endArrow=none;html=1;rounded=0;fontFamily=Helvetica;fontSize=14;fontColor=#ffffff;labelBackgroundColor=light-dark(#FFFFFF,#FFFFFF);entryX=0.5;entryY=0;entryDx=0;entryDy=0;exitX=0.5;exitY=1;exitDx=0;exitDy=0;strokeColor=light-dark(#000000,#000000);" parent="1" source="QeXP5KTg3SGVcVjhPOvT-29" target="4PwPoWEMqAy4mN4PP2mZ-127" edge="1">
          <mxGeometry relative="1" as="geometry">
            <mxPoint x="-150" y="140" as="sourcePoint" />
            <mxPoint x="-90" y="150" as="targetPoint" />
          </mxGeometry>
        </mxCell>
        <mxCell id="4PwPoWEMqAy4mN4PP2mZ-110" value="" style="endArrow=none;html=1;rounded=0;fontFamily=Helvetica;fontSize=14;fontColor=#ffffff;labelBackgroundColor=light-dark(#FFFFFF,#FFFFFF);entryX=0.5;entryY=0;entryDx=0;entryDy=0;exitX=0.25;exitY=1;exitDx=0;exitDy=0;strokeColor=light-dark(#000000,#000000);" parent="1" source="QeXP5KTg3SGVcVjhPOvT-29" target="4PwPoWEMqAy4mN4PP2mZ-126" edge="1">
          <mxGeometry relative="1" as="geometry">
            <mxPoint x="-140" y="150" as="sourcePoint" />
            <mxPoint x="-80" y="160" as="targetPoint" />
          </mxGeometry>
        </mxCell>
        <mxCell id="4PwPoWEMqAy4mN4PP2mZ-113" value="" style="endArrow=none;html=1;rounded=0;fontFamily=Helvetica;fontSize=14;fontColor=#ffffff;labelBackgroundColor=light-dark(#FFFFFF,#FFFFFF);entryX=0.25;entryY=1;entryDx=0;entryDy=0;exitX=1;exitY=0;exitDx=0;exitDy=0;strokeColor=light-dark(#000000,#000000);" parent="1" source="4PwPoWEMqAy4mN4PP2mZ-130" target="mef58CMw31DaKBu1uZpw-15" edge="1">
          <mxGeometry relative="1" as="geometry">
            <mxPoint x="-110" y="180" as="sourcePoint" />
            <mxPoint x="-50" y="190" as="targetPoint" />
          </mxGeometry>
        </mxCell>
        <mxCell id="4PwPoWEMqAy4mN4PP2mZ-114" value="" style="endArrow=none;html=1;rounded=0;fontFamily=Helvetica;fontSize=14;fontColor=#ffffff;labelBackgroundColor=light-dark(#FFFFFF,#FFFFFF);entryX=0.25;entryY=0;entryDx=0;entryDy=0;exitX=1;exitY=0.5;exitDx=0;exitDy=0;strokeColor=light-dark(#000000,#000000);" parent="1" source="4PwPoWEMqAy4mN4PP2mZ-131" target="mef58CMw31DaKBu1uZpw-15" edge="1">
          <mxGeometry relative="1" as="geometry">
            <mxPoint x="-100" y="190" as="sourcePoint" />
            <mxPoint x="-40" y="200" as="targetPoint" />
          </mxGeometry>
        </mxCell>
        <mxCell id="4PwPoWEMqAy4mN4PP2mZ-115" value="Location" style="ellipse;whiteSpace=wrap;html=1;align=center;strokeColor=light-dark(#000000,#000000);verticalAlign=middle;fontFamily=Helvetica;fontSize=14;fontColor=#ffffff;labelBackgroundColor=light-dark(#FFFFFF,#FFFFFF);fillColor=light-dark(#000000,#FFFFFF);" parent="1" vertex="1">
          <mxGeometry x="760" y="210" width="67.5" height="40" as="geometry" />
        </mxCell>
        <mxCell id="4PwPoWEMqAy4mN4PP2mZ-116" value="Name" style="ellipse;whiteSpace=wrap;html=1;align=center;strokeColor=light-dark(#000000,#000000);verticalAlign=middle;fontFamily=Helvetica;fontSize=14;fontColor=#ffffff;labelBackgroundColor=light-dark(#FFFFFF,#FFFFFF);fillColor=light-dark(#000000,#FFFFFF);" parent="1" vertex="1">
          <mxGeometry x="675" y="220" width="55" height="40" as="geometry" />
        </mxCell>
        <mxCell id="4PwPoWEMqAy4mN4PP2mZ-117" value="id" style="ellipse;whiteSpace=wrap;html=1;align=center;strokeColor=light-dark(#000000,#000000);verticalAlign=middle;fontFamily=Helvetica;fontSize=14;fontColor=#ffffff;labelBackgroundColor=light-dark(#FFFFFF,#FFFFFF);fillColor=light-dark(#000000,#FFFFFF);fontStyle=4" parent="1" vertex="1">
          <mxGeometry x="605" y="220" width="55" height="40" as="geometry" />
        </mxCell>
        <mxCell id="4PwPoWEMqAy4mN4PP2mZ-118" value="DueDate" style="ellipse;whiteSpace=wrap;html=1;align=center;strokeColor=light-dark(#000000,#000000);verticalAlign=middle;fontFamily=Helvetica;fontSize=14;fontColor=#ffffff;labelBackgroundColor=light-dark(#FFFFFF,#FFFFFF);fillColor=light-dark(#000000,#FFFFFF);" parent="1" vertex="1">
          <mxGeometry x="547.5" y="160" width="70" height="40" as="geometry" />
        </mxCell>
        <mxCell id="4PwPoWEMqAy4mN4PP2mZ-119" value="IssueDate" style="ellipse;whiteSpace=wrap;html=1;align=center;strokeColor=light-dark(#000000,#000000);verticalAlign=middle;fontFamily=Helvetica;fontSize=14;fontColor=#ffffff;labelBackgroundColor=light-dark(#FFFFFF,#FFFFFF);fillColor=light-dark(#000000,#FFFFFF);" parent="1" vertex="1">
          <mxGeometry x="455" y="170" width="80" height="40" as="geometry" />
        </mxCell>
        <mxCell id="4PwPoWEMqAy4mN4PP2mZ-120" value="Name" style="ellipse;whiteSpace=wrap;html=1;align=center;strokeColor=light-dark(#000000,#000000);verticalAlign=middle;fontFamily=Helvetica;fontSize=14;fontColor=#ffffff;labelBackgroundColor=light-dark(#FFFFFF,#FFFFFF);fillColor=light-dark(#000000,#FFFFFF);" parent="1" vertex="1">
          <mxGeometry x="440" y="10" width="55" height="40" as="geometry" />
        </mxCell>
        <mxCell id="4PwPoWEMqAy4mN4PP2mZ-121" value="id" style="ellipse;whiteSpace=wrap;html=1;align=center;strokeColor=light-dark(#000000,#000000);verticalAlign=middle;fontFamily=Helvetica;fontSize=14;fontColor=#ffffff;labelBackgroundColor=light-dark(#FFFFFF,#FFFFFF);fillColor=light-dark(#000000,#FFFFFF);fontStyle=4" parent="1" vertex="1">
          <mxGeometry x="360" y="10" width="55" height="40" as="geometry" />
        </mxCell>
        <mxCell id="4PwPoWEMqAy4mN4PP2mZ-122" value="Date" style="ellipse;whiteSpace=wrap;html=1;align=center;strokeColor=light-dark(#000000,#000000);verticalAlign=middle;fontFamily=Helvetica;fontSize=14;fontColor=#ffffff;labelBackgroundColor=light-dark(#FFFFFF,#FFFFFF);fillColor=light-dark(#000000,#FFFFFF);" parent="1" vertex="1">
          <mxGeometry x="162.5" width="55" height="40" as="geometry" />
        </mxCell>
        <mxCell id="4PwPoWEMqAy4mN4PP2mZ-123" value="Amount" style="ellipse;whiteSpace=wrap;html=1;align=center;strokeColor=light-dark(#000000,#000000);verticalAlign=middle;fontFamily=Helvetica;fontSize=14;fontColor=#ffffff;labelBackgroundColor=light-dark(#FFFFFF,#FFFFFF);fillColor=light-dark(#000000,#FFFFFF);" parent="1" vertex="1">
          <mxGeometry x="75" width="65" height="40" as="geometry" />
        </mxCell>
        <mxCell id="4PwPoWEMqAy4mN4PP2mZ-124" value="&lt;u&gt;S_No&lt;/u&gt;" style="ellipse;whiteSpace=wrap;html=1;align=center;strokeColor=light-dark(#000000,#000000);verticalAlign=middle;fontFamily=Helvetica;fontSize=14;fontColor=#ffffff;labelBackgroundColor=light-dark(#FFFFFF,#FFFFFF);fillColor=light-dark(#000000,#FFFFFF);" parent="1" vertex="1">
          <mxGeometry x="-37.5" width="90" height="40" as="geometry" />
        </mxCell>
        <mxCell id="4PwPoWEMqAy4mN4PP2mZ-125" value="Role" style="ellipse;whiteSpace=wrap;html=1;align=center;strokeColor=light-dark(#000000,#000000);verticalAlign=middle;fontFamily=Helvetica;fontSize=14;fontColor=#ffffff;labelBackgroundColor=light-dark(#FFFFFF,#FFFFFF);fillColor=light-dark(#000000,#FFFFFF);" parent="1" vertex="1">
          <mxGeometry x="700" y="700" width="80" height="40" as="geometry" />
        </mxCell>
        <mxCell id="4PwPoWEMqAy4mN4PP2mZ-126" value="Roll_no." style="ellipse;whiteSpace=wrap;html=1;align=center;strokeColor=light-dark(#000000,#000000);verticalAlign=middle;fontFamily=Helvetica;fontSize=14;fontColor=#ffffff;labelBackgroundColor=light-dark(#FFFFFF,#FFFFFF);fillColor=light-dark(#000000,#FFFFFF);fontStyle=4" parent="1" vertex="1">
          <mxGeometry x="420" y="700" width="80" height="40" as="geometry" />
        </mxCell>
        <mxCell id="4PwPoWEMqAy4mN4PP2mZ-127" value="Name" style="ellipse;whiteSpace=wrap;html=1;align=center;strokeColor=light-dark(#000000,#000000);verticalAlign=middle;fontFamily=Helvetica;fontSize=14;fontColor=#ffffff;labelBackgroundColor=light-dark(#FFFFFF,#FFFFFF);fillColor=light-dark(#000000,#FFFFFF);" parent="1" vertex="1">
          <mxGeometry x="535" y="700" width="75" height="40" as="geometry" />
        </mxCell>
        <mxCell id="4PwPoWEMqAy4mN4PP2mZ-130" value="Comments" style="ellipse;whiteSpace=wrap;html=1;align=center;strokeColor=light-dark(#000000,#000000);verticalAlign=middle;fontFamily=Helvetica;fontSize=14;fontColor=#ffffff;labelBackgroundColor=light-dark(#FFFFFF,#FFFFFF);fillColor=light-dark(#000000,#FFFFFF);" parent="1" vertex="1">
          <mxGeometry x="-37.5" y="710" width="80" height="40" as="geometry" />
        </mxCell>
        <mxCell id="4PwPoWEMqAy4mN4PP2mZ-131" value="Rating" style="ellipse;whiteSpace=wrap;html=1;align=center;strokeColor=light-dark(#000000,#000000);verticalAlign=middle;fontFamily=Helvetica;fontSize=14;fontColor=#ffffff;labelBackgroundColor=light-dark(#FFFFFF,#FFFFFF);fillColor=light-dark(#000000,#FFFFFF);" parent="1" vertex="1">
          <mxGeometry x="-30" y="585" width="55" height="40" as="geometry" />
        </mxCell>
        <mxCell id="4PwPoWEMqAy4mN4PP2mZ-134" value="" style="endArrow=none;html=1;rounded=0;fontFamily=Helvetica;fontSize=14;fontColor=#ffffff;labelBackgroundColor=light-dark(#FFFFFF,#FFFFFF);entryX=0.75;entryY=0;entryDx=0;entryDy=0;exitX=0.5;exitY=1;exitDx=0;exitDy=0;strokeColor=light-dark(#000000,#000000);" parent="1" source="4PwPoWEMqAy4mN4PP2mZ-147" target="4PwPoWEMqAy4mN4PP2mZ-17" edge="1">
          <mxGeometry relative="1" as="geometry">
            <mxPoint x="930" y="30" as="sourcePoint" />
            <mxPoint x="990" y="40" as="targetPoint" />
          </mxGeometry>
        </mxCell>
        <mxCell id="4PwPoWEMqAy4mN4PP2mZ-135" value="" style="endArrow=none;html=1;rounded=0;fontFamily=Helvetica;fontSize=14;fontColor=#ffffff;labelBackgroundColor=light-dark(#FFFFFF,#FFFFFF);entryX=1;entryY=0.5;entryDx=0;entryDy=0;exitX=0;exitY=1;exitDx=0;exitDy=0;strokeColor=light-dark(#000000,#000000);" parent="1" source="4PwPoWEMqAy4mN4PP2mZ-151" target="4PwPoWEMqAy4mN4PP2mZ-17" edge="1">
          <mxGeometry relative="1" as="geometry">
            <mxPoint x="940" y="40" as="sourcePoint" />
            <mxPoint x="1000" y="50" as="targetPoint" />
          </mxGeometry>
        </mxCell>
        <mxCell id="4PwPoWEMqAy4mN4PP2mZ-136" value="" style="endArrow=none;html=1;rounded=0;fontFamily=Helvetica;fontSize=14;fontColor=#ffffff;labelBackgroundColor=light-dark(#FFFFFF,#FFFFFF);entryX=0;entryY=0;entryDx=0;entryDy=0;exitX=0.5;exitY=1;exitDx=0;exitDy=0;strokeColor=light-dark(#000000,#000000);" parent="1" source="4PwPoWEMqAy4mN4PP2mZ-146" target="4PwPoWEMqAy4mN4PP2mZ-115" edge="1">
          <mxGeometry relative="1" as="geometry">
            <mxPoint x="950" y="50" as="sourcePoint" />
            <mxPoint x="1010" y="60" as="targetPoint" />
          </mxGeometry>
        </mxCell>
        <mxCell id="4PwPoWEMqAy4mN4PP2mZ-137" value="" style="endArrow=none;html=1;rounded=0;fontFamily=Helvetica;fontSize=14;fontColor=#ffffff;labelBackgroundColor=light-dark(#FFFFFF,#FFFFFF);entryX=0.5;entryY=0;entryDx=0;entryDy=0;exitX=0.25;exitY=1;exitDx=0;exitDy=0;strokeColor=light-dark(#000000,#000000);" parent="1" source="mef58CMw31DaKBu1uZpw-10" target="4PwPoWEMqAy4mN4PP2mZ-149" edge="1">
          <mxGeometry relative="1" as="geometry">
            <mxPoint x="1090" y="690" as="sourcePoint" />
            <mxPoint x="1020" y="70" as="targetPoint" />
          </mxGeometry>
        </mxCell>
        <mxCell id="4PwPoWEMqAy4mN4PP2mZ-139" value="" style="endArrow=none;html=1;rounded=0;fontFamily=Helvetica;fontSize=14;fontColor=#ffffff;labelBackgroundColor=light-dark(#FFFFFF,#FFFFFF);entryX=1;entryY=0.5;entryDx=0;entryDy=0;exitX=0;exitY=0.5;exitDx=0;exitDy=0;strokeColor=light-dark(#000000,#000000);" parent="1" source="mef58CMw31DaKBu1uZpw-4" target="QeXP5KTg3SGVcVjhPOvT-30" edge="1">
          <mxGeometry relative="1" as="geometry">
            <mxPoint x="980" y="80" as="sourcePoint" />
            <mxPoint x="1040" y="90" as="targetPoint" />
          </mxGeometry>
        </mxCell>
        <mxCell id="4PwPoWEMqAy4mN4PP2mZ-140" value="" style="endArrow=none;html=1;rounded=0;fontFamily=Helvetica;fontSize=14;fontColor=#ffffff;labelBackgroundColor=light-dark(#FFFFFF,#FFFFFF);entryX=0.75;entryY=0;entryDx=0;entryDy=0;exitX=0;exitY=1;exitDx=0;exitDy=0;strokeColor=light-dark(#000000,#000000);" parent="1" source="4PwPoWEMqAy4mN4PP2mZ-153" target="QeXP5KTg3SGVcVjhPOvT-30" edge="1">
          <mxGeometry relative="1" as="geometry">
            <mxPoint x="990" y="90" as="sourcePoint" />
            <mxPoint x="1050" y="100" as="targetPoint" />
          </mxGeometry>
        </mxCell>
        <mxCell id="4PwPoWEMqAy4mN4PP2mZ-141" value="" style="endArrow=none;html=1;rounded=0;fontFamily=Helvetica;fontSize=14;fontColor=#ffffff;labelBackgroundColor=light-dark(#FFFFFF,#FFFFFF);entryX=0.5;entryY=0;entryDx=0;entryDy=0;exitX=0.5;exitY=1;exitDx=0;exitDy=0;strokeColor=light-dark(#000000,#000000);" parent="1" source="4PwPoWEMqAy4mN4PP2mZ-154" target="QeXP5KTg3SGVcVjhPOvT-30" edge="1">
          <mxGeometry relative="1" as="geometry">
            <mxPoint x="1000" y="100" as="sourcePoint" />
            <mxPoint x="1060" y="110" as="targetPoint" />
          </mxGeometry>
        </mxCell>
        <mxCell id="4PwPoWEMqAy4mN4PP2mZ-142" value="" style="endArrow=none;html=1;rounded=0;fontFamily=Helvetica;fontSize=14;fontColor=#ffffff;labelBackgroundColor=light-dark(#FFFFFF,#FFFFFF);entryX=0.25;entryY=0;entryDx=0;entryDy=0;exitX=0.5;exitY=1;exitDx=0;exitDy=0;strokeColor=light-dark(#000000,#000000);" parent="1" source="4PwPoWEMqAy4mN4PP2mZ-155" target="QeXP5KTg3SGVcVjhPOvT-30" edge="1">
          <mxGeometry relative="1" as="geometry">
            <mxPoint x="1010" y="110" as="sourcePoint" />
            <mxPoint x="1070" y="120" as="targetPoint" />
          </mxGeometry>
        </mxCell>
        <mxCell id="4PwPoWEMqAy4mN4PP2mZ-143" value="" style="endArrow=none;html=1;rounded=0;fontFamily=Helvetica;fontSize=14;fontColor=#ffffff;labelBackgroundColor=light-dark(#FFFFFF,#FFFFFF);entryX=1;entryY=0.5;entryDx=0;entryDy=0;exitX=0;exitY=1;exitDx=0;exitDy=0;strokeColor=light-dark(#000000,#000000);" parent="1" source="mef58CMw31DaKBu1uZpw-3" target="QeXP5KTg3SGVcVjhPOvT-28" edge="1">
          <mxGeometry relative="1" as="geometry">
            <mxPoint x="1255" y="190" as="sourcePoint" />
            <mxPoint x="1080" y="130" as="targetPoint" />
          </mxGeometry>
        </mxCell>
        <mxCell id="4PwPoWEMqAy4mN4PP2mZ-144" value="" style="endArrow=none;html=1;rounded=0;fontFamily=Helvetica;fontSize=14;fontColor=#ffffff;labelBackgroundColor=light-dark(#FFFFFF,#FFFFFF);entryX=0.75;entryY=0;entryDx=0;entryDy=0;exitX=0;exitY=1;exitDx=0;exitDy=0;strokeColor=light-dark(#000000,#000000);" parent="1" source="4PwPoWEMqAy4mN4PP2mZ-158" target="QeXP5KTg3SGVcVjhPOvT-28" edge="1">
          <mxGeometry relative="1" as="geometry">
            <mxPoint x="1030" y="130" as="sourcePoint" />
            <mxPoint x="1090" y="140" as="targetPoint" />
          </mxGeometry>
        </mxCell>
        <mxCell id="4PwPoWEMqAy4mN4PP2mZ-145" value="" style="endArrow=none;html=1;rounded=0;fontFamily=Helvetica;fontSize=14;fontColor=#ffffff;labelBackgroundColor=light-dark(#FFFFFF,#FFFFFF);entryX=0.25;entryY=0;entryDx=0;entryDy=0;exitX=0.5;exitY=1;exitDx=0;exitDy=0;strokeColor=light-dark(#000000,#000000);" parent="1" source="4PwPoWEMqAy4mN4PP2mZ-157" target="QeXP5KTg3SGVcVjhPOvT-28" edge="1">
          <mxGeometry relative="1" as="geometry">
            <mxPoint x="1040" y="140" as="sourcePoint" />
            <mxPoint x="1100" y="150" as="targetPoint" />
          </mxGeometry>
        </mxCell>
        <mxCell id="4PwPoWEMqAy4mN4PP2mZ-146" value="Street" style="ellipse;whiteSpace=wrap;html=1;align=center;strokeColor=light-dark(#000000,#000000);verticalAlign=middle;fontFamily=Helvetica;fontSize=14;fontColor=#ffffff;labelBackgroundColor=light-dark(#FFFFFF,#FFFFFF);fillColor=light-dark(#000000,#FFFFFF);" parent="1" vertex="1">
          <mxGeometry x="687.5" y="110" width="55" height="40" as="geometry" />
        </mxCell>
        <mxCell id="4PwPoWEMqAy4mN4PP2mZ-147" value="Number" style="ellipse;whiteSpace=wrap;html=1;align=center;strokeColor=light-dark(#000000,#000000);verticalAlign=middle;fontFamily=Helvetica;fontSize=14;fontColor=#ffffff;labelBackgroundColor=light-dark(#FFFFFF,#FFFFFF);fillColor=light-dark(#000000,#FFFFFF);fontStyle=4" parent="1" vertex="1">
          <mxGeometry x="1150" y="405" width="70" height="40" as="geometry" />
        </mxCell>
        <mxCell id="4PwPoWEMqAy4mN4PP2mZ-148" value="MealType" style="ellipse;whiteSpace=wrap;html=1;align=center;strokeColor=light-dark(#000000,#000000);verticalAlign=middle;fontFamily=Helvetica;fontSize=14;fontColor=#ffffff;labelBackgroundColor=light-dark(#FFFFFF,#FFFFFF);fillColor=light-dark(#000000,#FFFFFF);" parent="1" vertex="1">
          <mxGeometry x="1040" y="560" width="75" height="40" as="geometry" />
        </mxCell>
        <mxCell id="4PwPoWEMqAy4mN4PP2mZ-149" value="ItemId" style="ellipse;whiteSpace=wrap;html=1;align=center;strokeColor=light-dark(#000000,#000000);verticalAlign=middle;fontFamily=Helvetica;fontSize=14;fontColor=#ffffff;labelBackgroundColor=light-dark(#FFFFFF,#FFFFFF);fillColor=light-dark(#000000,#FFFFFF);" parent="1" vertex="1">
          <mxGeometry x="940" y="720" width="60" height="40" as="geometry" />
        </mxCell>
        <mxCell id="4PwPoWEMqAy4mN4PP2mZ-151" value="Date" style="ellipse;whiteSpace=wrap;html=1;align=center;strokeColor=light-dark(#000000,#000000);verticalAlign=middle;fontFamily=Helvetica;fontSize=14;fontColor=#ffffff;labelBackgroundColor=light-dark(#FFFFFF,#FFFFFF);fillColor=light-dark(#000000,#FFFFFF);fontStyle=0" parent="1" vertex="1">
          <mxGeometry x="1245" y="420" width="55" height="40" as="geometry" />
        </mxCell>
        <mxCell id="4PwPoWEMqAy4mN4PP2mZ-153" value="Role" style="ellipse;whiteSpace=wrap;html=1;align=center;strokeColor=light-dark(#000000,#000000);verticalAlign=middle;fontFamily=Helvetica;fontSize=14;fontColor=#ffffff;labelBackgroundColor=light-dark(#FFFFFF,#FFFFFF);fillColor=light-dark(#000000,#FFFFFF);" parent="1" vertex="1">
          <mxGeometry x="1210" y="280" width="90" height="40" as="geometry" />
        </mxCell>
        <mxCell id="4PwPoWEMqAy4mN4PP2mZ-154" value="Name" style="ellipse;whiteSpace=wrap;html=1;align=center;strokeColor=light-dark(#000000,#000000);verticalAlign=middle;fontFamily=Helvetica;fontSize=14;fontColor=#ffffff;labelBackgroundColor=light-dark(#FFFFFF,#FFFFFF);fillColor=light-dark(#000000,#FFFFFF);" parent="1" vertex="1">
          <mxGeometry x="1145" y="260" width="55" height="40" as="geometry" />
        </mxCell>
        <mxCell id="4PwPoWEMqAy4mN4PP2mZ-155" value="id" style="ellipse;whiteSpace=wrap;html=1;align=center;strokeColor=light-dark(#000000,#000000);verticalAlign=middle;fontFamily=Helvetica;fontSize=14;fontColor=#ffffff;labelBackgroundColor=light-dark(#FFFFFF,#FFFFFF);fillColor=light-dark(#000000,#FFFFFF);fontStyle=4" parent="1" vertex="1">
          <mxGeometry x="1090" y="260" width="40" height="40" as="geometry" />
        </mxCell>
        <mxCell id="4PwPoWEMqAy4mN4PP2mZ-157" value="Prof_id" style="ellipse;whiteSpace=wrap;html=1;align=center;strokeColor=light-dark(#000000,#000000);verticalAlign=middle;fontFamily=Helvetica;fontSize=14;fontColor=#ffffff;labelBackgroundColor=light-dark(#FFFFFF,#FFFFFF);fillColor=light-dark(#000000,#FFFFFF);fontStyle=4" parent="1" vertex="1">
          <mxGeometry x="1090" y="110" width="55" height="40" as="geometry" />
        </mxCell>
        <mxCell id="4PwPoWEMqAy4mN4PP2mZ-158" value="Name" style="ellipse;whiteSpace=wrap;html=1;align=center;strokeColor=light-dark(#000000,#000000);verticalAlign=middle;fontFamily=Helvetica;fontSize=14;fontColor=#ffffff;labelBackgroundColor=light-dark(#FFFFFF,#FFFFFF);fillColor=light-dark(#000000,#FFFFFF);" parent="1" vertex="1">
          <mxGeometry x="1165" y="110" width="55" height="40" as="geometry" />
        </mxCell>
        <mxCell id="4PwPoWEMqAy4mN4PP2mZ-166" value="Category" style="ellipse;whiteSpace=wrap;html=1;align=center;strokeColor=light-dark(#000000,#000000);verticalAlign=middle;fontFamily=Helvetica;fontSize=14;fontColor=#ffffff;labelBackgroundColor=light-dark(#FFFFFF,#FFFFFF);fillColor=light-dark(#000000,#FFFFFF);" parent="1" vertex="1">
          <mxGeometry x="1115" y="680" width="70" height="40" as="geometry" />
        </mxCell>
        <mxCell id="4PwPoWEMqAy4mN4PP2mZ-167" value="DishName" style="ellipse;whiteSpace=wrap;html=1;align=center;strokeColor=light-dark(#000000,#000000);verticalAlign=middle;fontFamily=Helvetica;fontSize=14;fontColor=#ffffff;labelBackgroundColor=light-dark(#FFFFFF,#FFFFFF);fillColor=light-dark(#000000,#FFFFFF);" parent="1" vertex="1">
          <mxGeometry x="1100" y="620" width="75" height="40" as="geometry" />
        </mxCell>
        <mxCell id="4PwPoWEMqAy4mN4PP2mZ-169" value="Theme" style="ellipse;whiteSpace=wrap;html=1;align=center;strokeColor=light-dark(#000000,#000000);verticalAlign=middle;fontFamily=Helvetica;fontSize=14;fontColor=#ffffff;labelBackgroundColor=light-dark(#FFFFFF,#FFFFFF);fillColor=light-dark(#000000,#FFFFFF);" parent="1" vertex="1">
          <mxGeometry x="1245" y="520" width="55" height="40" as="geometry" />
        </mxCell>
        <mxCell id="4PwPoWEMqAy4mN4PP2mZ-170" value="" style="endArrow=none;html=1;rounded=0;fontFamily=Helvetica;fontSize=14;fontColor=#ffffff;labelBackgroundColor=light-dark(#FFFFFF,#FFFFFF);entryX=0.5;entryY=0;entryDx=0;entryDy=0;exitX=0.5;exitY=1;exitDx=0;exitDy=0;strokeColor=light-dark(#000000,#000000);" parent="1" source="4PwPoWEMqAy4mN4PP2mZ-172" target="4PwPoWEMqAy4mN4PP2mZ-115" edge="1">
          <mxGeometry relative="1" as="geometry">
            <mxPoint x="960" y="60" as="sourcePoint" />
            <mxPoint x="1020" y="70" as="targetPoint" />
          </mxGeometry>
        </mxCell>
        <mxCell id="4PwPoWEMqAy4mN4PP2mZ-171" value="" style="endArrow=none;html=1;rounded=0;fontFamily=Helvetica;fontSize=14;fontColor=#ffffff;labelBackgroundColor=light-dark(#FFFFFF,#FFFFFF);entryX=1;entryY=0;entryDx=0;entryDy=0;exitX=0;exitY=1;exitDx=0;exitDy=0;strokeColor=light-dark(#000000,#000000);" parent="1" source="4PwPoWEMqAy4mN4PP2mZ-173" target="4PwPoWEMqAy4mN4PP2mZ-115" edge="1">
          <mxGeometry relative="1" as="geometry">
            <mxPoint x="970" y="70" as="sourcePoint" />
            <mxPoint x="1030" y="80" as="targetPoint" />
          </mxGeometry>
        </mxCell>
        <mxCell id="4PwPoWEMqAy4mN4PP2mZ-172" value="City" style="ellipse;whiteSpace=wrap;html=1;align=center;strokeColor=light-dark(#000000,#000000);verticalAlign=middle;fontFamily=Helvetica;fontSize=14;fontColor=#ffffff;labelBackgroundColor=light-dark(#FFFFFF,#FFFFFF);fillColor=light-dark(#000000,#FFFFFF);" parent="1" vertex="1">
          <mxGeometry x="780" y="100" width="55" height="40" as="geometry" />
        </mxCell>
        <mxCell id="4PwPoWEMqAy4mN4PP2mZ-173" value="State" style="ellipse;whiteSpace=wrap;html=1;align=center;strokeColor=light-dark(#000000,#000000);verticalAlign=middle;fontFamily=Helvetica;fontSize=14;fontColor=#ffffff;labelBackgroundColor=light-dark(#FFFFFF,#FFFFFF);fillColor=light-dark(#000000,#FFFFFF);" parent="1" vertex="1">
          <mxGeometry x="850" y="140" width="55" height="40" as="geometry" />
        </mxCell>
        <mxCell id="4PwPoWEMqAy4mN4PP2mZ-174" value="" style="endArrow=none;html=1;rounded=0;fontFamily=Helvetica;fontSize=14;fontColor=#ffffff;labelBackgroundColor=light-dark(#FFFFFF,#FFFFFF);entryX=1;entryY=0.5;entryDx=0;entryDy=0;exitX=0;exitY=0.5;exitDx=0;exitDy=0;strokeColor=light-dark(#000000,#000000);" parent="1" source="4PwPoWEMqAy4mN4PP2mZ-167" target="mef58CMw31DaKBu1uZpw-10" edge="1">
          <mxGeometry relative="1" as="geometry">
            <mxPoint x="930" y="30" as="sourcePoint" />
            <mxPoint x="1190" y="670" as="targetPoint" />
          </mxGeometry>
        </mxCell>
        <mxCell id="4PwPoWEMqAy4mN4PP2mZ-175" value="" style="endArrow=none;html=1;rounded=0;fontFamily=Helvetica;fontSize=14;fontColor=#ffffff;labelBackgroundColor=light-dark(#FFFFFF,#FFFFFF);entryX=0.5;entryY=0;entryDx=0;entryDy=0;exitX=0;exitY=1;exitDx=0;exitDy=0;strokeColor=light-dark(#000000,#000000);" parent="1" source="4PwPoWEMqAy4mN4PP2mZ-148" target="mef58CMw31DaKBu1uZpw-10" edge="1">
          <mxGeometry relative="1" as="geometry">
            <mxPoint x="940" y="40" as="sourcePoint" />
            <mxPoint x="1140" y="650" as="targetPoint" />
          </mxGeometry>
        </mxCell>
        <mxCell id="4PwPoWEMqAy4mN4PP2mZ-176" value="" style="endArrow=none;html=1;rounded=0;fontFamily=Helvetica;fontSize=14;fontColor=#ffffff;labelBackgroundColor=light-dark(#FFFFFF,#FFFFFF);entryX=0.75;entryY=1;entryDx=0;entryDy=0;exitX=0;exitY=0.5;exitDx=0;exitDy=0;strokeColor=light-dark(#000000,#000000);" parent="1" source="4PwPoWEMqAy4mN4PP2mZ-169" target="4PwPoWEMqAy4mN4PP2mZ-17" edge="1">
          <mxGeometry relative="1" as="geometry">
            <mxPoint x="950" y="50" as="sourcePoint" />
            <mxPoint x="1010" y="60" as="targetPoint" />
          </mxGeometry>
        </mxCell>
        <mxCell id="mef58CMw31DaKBu1uZpw-1" value="Capacity" style="ellipse;whiteSpace=wrap;html=1;align=center;strokeColor=light-dark(#000000,#000000);verticalAlign=middle;fontFamily=Helvetica;fontSize=14;fontColor=#ffffff;labelBackgroundColor=light-dark(#FFFFFF,#FFFFFF);fillColor=light-dark(#000000,#FFFFFF);" parent="1" vertex="1">
          <mxGeometry x="630" y="170" width="70" height="40" as="geometry" />
        </mxCell>
        <mxCell id="mef58CMw31DaKBu1uZpw-2" value="" style="endArrow=none;html=1;rounded=0;fontFamily=Helvetica;fontSize=14;fontColor=#ffffff;labelBackgroundColor=light-dark(#FFFFFF,#FFFFFF);entryX=0.5;entryY=0;entryDx=0;entryDy=0;exitX=0.5;exitY=1;exitDx=0;exitDy=0;strokeColor=light-dark(#000000,#000000);" parent="1" source="mef58CMw31DaKBu1uZpw-1" target="QeXP5KTg3SGVcVjhPOvT-14" edge="1">
          <mxGeometry relative="1" as="geometry">
            <mxPoint x="713" y="270" as="sourcePoint" />
            <mxPoint x="705" y="350" as="targetPoint" />
          </mxGeometry>
        </mxCell>
        <mxCell id="mef58CMw31DaKBu1uZpw-3" value="Contact_no." style="ellipse;shape=doubleEllipse;margin=3;whiteSpace=wrap;html=1;align=center;strokeColor=light-dark(#000000,#000000);verticalAlign=middle;fontFamily=Helvetica;fontSize=14;fontColor=#ffffff;labelBackgroundColor=light-dark(#FFFFFF,#FFFFFF);fillColor=light-dark(#000000,#FFFFFF);" parent="1" vertex="1">
          <mxGeometry x="1227.5" y="150" width="100" height="40" as="geometry" />
        </mxCell>
        <mxCell id="mef58CMw31DaKBu1uZpw-4" value="Contact_no." style="ellipse;shape=doubleEllipse;margin=3;whiteSpace=wrap;html=1;align=center;strokeColor=light-dark(#000000,#000000);verticalAlign=middle;fontFamily=Helvetica;fontSize=14;fontColor=#ffffff;labelBackgroundColor=light-dark(#FFFFFF,#FFFFFF);fillColor=light-dark(#000000,#FFFFFF);" parent="1" vertex="1">
          <mxGeometry x="1245" y="340" width="100" height="40" as="geometry" />
        </mxCell>
        <mxCell id="mef58CMw31DaKBu1uZpw-6" value="Contact_no." style="ellipse;shape=doubleEllipse;margin=3;whiteSpace=wrap;html=1;align=center;strokeColor=light-dark(#000000,#000000);verticalAlign=middle;fontFamily=Helvetica;fontSize=14;fontColor=#ffffff;labelBackgroundColor=light-dark(#FFFFFF,#FFFFFF);fillColor=light-dark(#000000,#FFFFFF);" parent="1" vertex="1">
          <mxGeometry x="500" y="30" width="100" height="40" as="geometry" />
        </mxCell>
        <mxCell id="mef58CMw31DaKBu1uZpw-8" value="" style="endArrow=none;html=1;rounded=0;fontFamily=Helvetica;fontSize=14;fontColor=#ffffff;labelBackgroundColor=light-dark(#FFFFFF,#FFFFFF);entryX=0.75;entryY=0;entryDx=0;entryDy=0;exitX=0;exitY=1;exitDx=0;exitDy=0;strokeColor=light-dark(#000000,#000000);" parent="1" source="mef58CMw31DaKBu1uZpw-6" target="QeXP5KTg3SGVcVjhPOvT-33" edge="1">
          <mxGeometry relative="1" as="geometry">
            <mxPoint x="489" y="80" as="sourcePoint" />
            <mxPoint x="450" y="130" as="targetPoint" />
          </mxGeometry>
        </mxCell>
        <mxCell id="mef58CMw31DaKBu1uZpw-10" value="DAILY_MENU" style="shape=ext;margin=3;double=1;whiteSpace=wrap;html=1;align=center;strokeColor=light-dark(#000000,#000000);verticalAlign=middle;fontFamily=Helvetica;fontSize=14;fontColor=#ffffff;labelBackgroundColor=light-dark(#FFFFFF,#FFFFFF);fillColor=light-dark(#000000,#FFFFFF);" parent="1" vertex="1">
          <mxGeometry x="900" y="620" width="140" height="40" as="geometry" />
        </mxCell>
        <mxCell id="mef58CMw31DaKBu1uZpw-11" value="Day" style="ellipse;whiteSpace=wrap;html=1;align=center;strokeColor=light-dark(#000000,#000000);verticalAlign=middle;fontFamily=Helvetica;fontSize=14;fontColor=#ffffff;labelBackgroundColor=light-dark(#FFFFFF,#FFFFFF);fillColor=light-dark(#000000,#FFFFFF);fontStyle=4" parent="1" vertex="1">
          <mxGeometry x="1030" y="710" width="70" height="40" as="geometry" />
        </mxCell>
        <mxCell id="mef58CMw31DaKBu1uZpw-15" value="Feedback" style="shape=ext;margin=3;double=1;whiteSpace=wrap;html=1;align=center;fontFamily=Helvetica;fontSize=14;fontColor=#ffffff;labelBackgroundColor=light-dark(#FFFFFF,#FFFFFF);strokeColor=light-dark(#000000,#000000);verticalAlign=middle;fillColor=light-dark(#000000,#FFFFFF);" parent="1" vertex="1">
          <mxGeometry x="42.49999999999995" y="640" width="135.9" height="40" as="geometry" />
        </mxCell>
        <mxCell id="mef58CMw31DaKBu1uZpw-16" value="Payment" style="shape=ext;margin=3;double=1;whiteSpace=wrap;html=1;align=center;fontFamily=Helvetica;fontSize=14;fontColor=#ffffff;labelBackgroundColor=light-dark(#FFFFFF,#FFFFFF);strokeColor=light-dark(#000000,#000000);verticalAlign=middle;fillColor=light-dark(#000000,#FFFFFF);" parent="1" vertex="1">
          <mxGeometry x="64.38" y="80" width="107.5" height="40" as="geometry" />
        </mxCell>
        <mxCell id="mef58CMw31DaKBu1uZpw-19" value="Pays" style="shape=rhombus;double=1;perimeter=rhombusPerimeter;whiteSpace=wrap;html=1;align=center;strokeColor=light-dark(#000000,#000000);verticalAlign=middle;fontFamily=Helvetica;fontSize=14;fontColor=#ffffff;labelBackgroundColor=light-dark(#FFFFFF,#FFFFFF);fillColor=light-dark(#000000,#FFFFFF);direction=south;" parent="1" vertex="1">
          <mxGeometry x="77.5" y="180" width="60" height="90" as="geometry" />
        </mxCell>
        <mxCell id="mef58CMw31DaKBu1uZpw-20" value="" style="endArrow=none;html=1;rounded=0;fontFamily=Helvetica;fontSize=14;fontColor=#ffffff;labelBackgroundColor=light-dark(#FFFFFF,#FFFFFF);entryX=0.5;entryY=0;entryDx=0;entryDy=0;strokeColor=light-dark(#000000,#000000);exitX=1;exitY=0.5;exitDx=0;exitDy=0;" parent="1" source="mef58CMw31DaKBu1uZpw-19" target="QeXP5KTg3SGVcVjhPOvT-15" edge="1">
          <mxGeometry relative="1" as="geometry">
            <mxPoint x="118" y="190" as="sourcePoint" />
            <mxPoint x="120" y="130" as="targetPoint" />
          </mxGeometry>
        </mxCell>
        <mxCell id="mef58CMw31DaKBu1uZpw-21" value="1" style="resizable=0;html=1;whiteSpace=wrap;align=right;verticalAlign=bottom;strokeColor=light-dark(#000000,#000000);fontFamily=Helvetica;fontSize=14;fontColor=#ffffff;labelBackgroundColor=light-dark(#FFFFFF,#FFFFFF);fillColor=light-dark(#000000,#FFFFFF);" parent="mef58CMw31DaKBu1uZpw-20" connectable="0" vertex="1">
          <mxGeometry x="1" relative="1" as="geometry">
            <mxPoint x="21" y="-10" as="offset" />
          </mxGeometry>
        </mxCell>
        <mxCell id="mef58CMw31DaKBu1uZpw-22" value="Pays to" style="shape=rhombus;double=1;perimeter=rhombusPerimeter;whiteSpace=wrap;html=1;align=center;strokeColor=light-dark(#000000,#000000);verticalAlign=middle;fontFamily=Helvetica;fontSize=14;fontColor=#ffffff;labelBackgroundColor=light-dark(#FFFFFF,#FFFFFF);fillColor=light-dark(#000000,#FFFFFF);direction=east;" parent="1" vertex="1">
          <mxGeometry x="240" y="90" width="100" height="60" as="geometry" />
        </mxCell>
        <mxCell id="mef58CMw31DaKBu1uZpw-23" value="Hosts" style="shape=rhombus;double=1;perimeter=rhombusPerimeter;whiteSpace=wrap;html=1;align=center;strokeColor=light-dark(#000000,#000000);verticalAlign=middle;fontFamily=Helvetica;fontSize=14;fontColor=#ffffff;labelBackgroundColor=light-dark(#FFFFFF,#FFFFFF);fillColor=light-dark(#000000,#FFFFFF);direction=east;rotation=15;" parent="1" vertex="1">
          <mxGeometry x="835" y="410" width="100" height="60" as="geometry" />
        </mxCell>
        <mxCell id="mef58CMw31DaKBu1uZpw-28" value="Gives" style="shape=rhombus;double=1;perimeter=rhombusPerimeter;whiteSpace=wrap;html=1;align=center;strokeColor=light-dark(#000000,#000000);verticalAlign=middle;fontFamily=Helvetica;fontSize=14;fontColor=#ffffff;labelBackgroundColor=light-dark(#FFFFFF,#FFFFFF);fillColor=light-dark(#000000,#FFFFFF);direction=south;" parent="1" vertex="1">
          <mxGeometry x="88.13" y="460" width="60" height="90" as="geometry" />
        </mxCell>
        <mxCell id="mef58CMw31DaKBu1uZpw-29" value="About" style="shape=rhombus;double=1;perimeter=rhombusPerimeter;whiteSpace=wrap;html=1;align=center;strokeColor=light-dark(#000000,#000000);verticalAlign=middle;fontFamily=Helvetica;fontSize=14;fontColor=#ffffff;labelBackgroundColor=light-dark(#FFFFFF,#FFFFFF);fillColor=light-dark(#000000,#FFFFFF);direction=east;rotation=-30;" parent="1" vertex="1">
          <mxGeometry x="320" y="475" width="100" height="60" as="geometry" />
        </mxCell>
        <mxCell id="mef58CMw31DaKBu1uZpw-30" value="" style="endArrow=none;html=1;rounded=0;fontFamily=Helvetica;fontSize=14;fontColor=#ffffff;labelBackgroundColor=light-dark(#FFFFFF,#FFFFFF);entryX=1;entryY=0;entryDx=0;entryDy=0;strokeColor=light-dark(#000000,#000000);exitX=0;exitY=0.5;exitDx=0;exitDy=0;" parent="1" source="mef58CMw31DaKBu1uZpw-29" target="mef58CMw31DaKBu1uZpw-15" edge="1">
          <mxGeometry relative="1" as="geometry">
            <mxPoint x="427" y="498" as="sourcePoint" />
            <mxPoint x="630" y="390" as="targetPoint" />
          </mxGeometry>
        </mxCell>
        <mxCell id="mef58CMw31DaKBu1uZpw-31" value="N" style="resizable=0;html=1;whiteSpace=wrap;align=right;verticalAlign=bottom;strokeColor=light-dark(#000000,#000000);fontFamily=Helvetica;fontSize=14;fontColor=#ffffff;labelBackgroundColor=light-dark(#FFFFFF,#FFFFFF);fillColor=light-dark(#000000,#FFFFFF);" parent="mef58CMw31DaKBu1uZpw-30" connectable="0" vertex="1">
          <mxGeometry x="1" relative="1" as="geometry">
            <mxPoint y="-12" as="offset" />
          </mxGeometry>
        </mxCell>
        <mxCell id="mef58CMw31DaKBu1uZpw-32" value="" style="endArrow=none;html=1;rounded=0;fontFamily=Helvetica;fontSize=14;fontColor=#ffffff;labelBackgroundColor=light-dark(#FFFFFF,#FFFFFF);entryX=0;entryY=0;entryDx=0;entryDy=0;exitX=0.75;exitY=1;exitDx=0;exitDy=0;strokeColor=light-dark(#000000,#000000);" parent="1" source="mef58CMw31DaKBu1uZpw-10" target="mef58CMw31DaKBu1uZpw-11" edge="1">
          <mxGeometry relative="1" as="geometry">
            <mxPoint x="975" y="670" as="sourcePoint" />
            <mxPoint x="988" y="740" as="targetPoint" />
          </mxGeometry>
        </mxCell>
        <mxCell id="mef58CMw31DaKBu1uZpw-34" value="Offers" style="shape=rhombus;double=1;perimeter=rhombusPerimeter;whiteSpace=wrap;html=1;align=center;strokeColor=light-dark(#000000,#000000);verticalAlign=middle;fontFamily=Helvetica;fontSize=14;fontColor=#ffffff;labelBackgroundColor=light-dark(#FFFFFF,#FFFFFF);fillColor=light-dark(#000000,#FFFFFF);direction=east;rotation=45;" parent="1" vertex="1">
          <mxGeometry x="735" y="470" width="100" height="60" as="geometry" />
        </mxCell>
        <mxCell id="mef58CMw31DaKBu1uZpw-35" style="edgeStyle=none;curved=1;rounded=0;orthogonalLoop=1;jettySize=auto;html=1;exitX=0.5;exitY=1;exitDx=0;exitDy=0;fontFamily=Helvetica;fontSize=14;fontColor=#ffffff;labelBackgroundColor=light-dark(#FFFFFF,#FFFFFF);startSize=8;endSize=8;" parent="1" source="4PwPoWEMqAy4mN4PP2mZ-115" target="4PwPoWEMqAy4mN4PP2mZ-115" edge="1">
          <mxGeometry relative="1" as="geometry" />
        </mxCell>
        <mxCell id="mef58CMw31DaKBu1uZpw-36" value="Feedback_no." style="ellipse;whiteSpace=wrap;html=1;align=center;strokeColor=light-dark(#000000,#000000);verticalAlign=middle;fontFamily=Helvetica;fontSize=14;fontColor=#ffffff;labelBackgroundColor=light-dark(#FFFFFF,#FFFFFF);fillColor=light-dark(#000000,#FFFFFF);fontStyle=4" parent="1" vertex="1">
          <mxGeometry x="82.5" y="720" width="107.5" height="40" as="geometry" />
        </mxCell>
        <mxCell id="mef58CMw31DaKBu1uZpw-37" value="" style="endArrow=none;html=1;rounded=0;fontFamily=Helvetica;fontSize=14;fontColor=#ffffff;labelBackgroundColor=light-dark(#FFFFFF,#FFFFFF);entryX=0.5;entryY=1;entryDx=0;entryDy=0;exitX=0.5;exitY=0;exitDx=0;exitDy=0;strokeColor=light-dark(#000000,#000000);" parent="1" source="mef58CMw31DaKBu1uZpw-36" target="mef58CMw31DaKBu1uZpw-15" edge="1">
          <mxGeometry relative="1" as="geometry">
            <mxPoint x="41" y="726" as="sourcePoint" />
            <mxPoint x="86" y="690" as="targetPoint" />
          </mxGeometry>
        </mxCell>
        <mxCell id="KhgScmEdkFr6odMR2507-1" value="" style="shape=link;html=1;rounded=0;strokeColor=light-dark(#000000,#000000);exitX=0.5;exitY=1;exitDx=0;exitDy=0;entryX=0;entryY=0.5;entryDx=0;entryDy=0;" parent="1" source="mef58CMw31DaKBu1uZpw-16" target="mef58CMw31DaKBu1uZpw-19" edge="1">
          <mxGeometry width="100" relative="1" as="geometry">
            <mxPoint x="590" y="380" as="sourcePoint" />
            <mxPoint x="170" y="180" as="targetPoint" />
          </mxGeometry>
        </mxCell>
        <mxCell id="KhgScmEdkFr6odMR2507-3" value="" style="shape=link;html=1;rounded=0;strokeColor=light-dark(#000000,#000000);exitX=1;exitY=0.5;exitDx=0;exitDy=0;entryX=0.5;entryY=0;entryDx=0;entryDy=0;" parent="1" source="mef58CMw31DaKBu1uZpw-28" target="mef58CMw31DaKBu1uZpw-15" edge="1">
          <mxGeometry width="100" relative="1" as="geometry">
            <mxPoint x="128" y="130" as="sourcePoint" />
            <mxPoint x="118" y="630" as="targetPoint" />
          </mxGeometry>
        </mxCell>
        <mxCell id="KhgScmEdkFr6odMR2507-4" value="N" style="resizable=0;html=1;whiteSpace=wrap;align=right;verticalAlign=bottom;strokeColor=light-dark(#000000,#000000);fontFamily=Helvetica;fontSize=14;fontColor=#ffffff;labelBackgroundColor=light-dark(#FFFFFF,#FFFFFF);fillColor=light-dark(#000000,#FFFFFF);" parent="1" connectable="0" vertex="1">
          <mxGeometry x="147.47777403476948" y="638.9302614159974" as="geometry">
            <mxPoint x="-7" y="-8" as="offset" />
          </mxGeometry>
        </mxCell>
        <mxCell id="KhgScmEdkFr6odMR2507-5" value="1" style="resizable=0;html=1;whiteSpace=wrap;align=right;verticalAlign=bottom;strokeColor=light-dark(#000000,#000000);fontFamily=Helvetica;fontSize=14;fontColor=#ffffff;labelBackgroundColor=light-dark(#FFFFFF,#FFFFFF);fillColor=light-dark(#000000,#FFFFFF);" parent="1" connectable="0" vertex="1">
          <mxGeometry x="118.12777403476949" y="638.9302614159974" as="geometry">
            <mxPoint x="18" y="-487" as="offset" />
          </mxGeometry>
        </mxCell>
        <mxCell id="KhgScmEdkFr6odMR2507-6" value="" style="shape=link;html=1;rounded=0;strokeColor=light-dark(#000000,#000000);exitX=1;exitY=0.5;exitDx=0;exitDy=0;entryX=0;entryY=0;entryDx=0;entryDy=0;" parent="1" source="mef58CMw31DaKBu1uZpw-34" target="mef58CMw31DaKBu1uZpw-10" edge="1">
          <mxGeometry width="100" relative="1" as="geometry">
            <mxPoint x="128" y="560" as="sourcePoint" />
            <mxPoint x="120" y="650" as="targetPoint" />
          </mxGeometry>
        </mxCell>
        <mxCell id="KhgScmEdkFr6odMR2507-7" value="N" style="resizable=0;html=1;whiteSpace=wrap;align=right;verticalAlign=bottom;strokeColor=light-dark(#000000,#000000);fontFamily=Helvetica;fontSize=14;fontColor=#ffffff;labelBackgroundColor=light-dark(#FFFFFF,#FFFFFF);fillColor=light-dark(#000000,#FFFFFF);" parent="1" connectable="0" vertex="1">
          <mxGeometry x="909.9611244770654" y="614.9538027955223" as="geometry" />
        </mxCell>
        <mxCell id="KhgScmEdkFr6odMR2507-8" value="" style="shape=link;html=1;rounded=0;strokeColor=light-dark(#000000,#000000);exitX=1;exitY=0.5;exitDx=0;exitDy=0;entryX=0;entryY=0.5;entryDx=0;entryDy=0;" parent="1" source="mef58CMw31DaKBu1uZpw-23" target="4PwPoWEMqAy4mN4PP2mZ-17" edge="1">
          <mxGeometry width="100" relative="1" as="geometry">
            <mxPoint x="830" y="545" as="sourcePoint" />
            <mxPoint x="910" y="630" as="targetPoint" />
          </mxGeometry>
        </mxCell>
        <mxCell id="KhgScmEdkFr6odMR2507-9" value="N" style="resizable=0;html=1;whiteSpace=wrap;align=right;verticalAlign=bottom;strokeColor=light-dark(#000000,#000000);fontFamily=Helvetica;fontSize=14;fontColor=#ffffff;labelBackgroundColor=light-dark(#FFFFFF,#FFFFFF);fillColor=light-dark(#000000,#FFFFFF);" parent="1" connectable="0" vertex="1">
          <mxGeometry x="1077.5003923564727" y="480.00184545267723" as="geometry">
            <mxPoint x="-21" y="-9" as="offset" />
          </mxGeometry>
        </mxCell>
      </root>
    </mxGraphModel>
  </diagram>
</mxfile>
